<?xml version="1.0" encoding="utf-8"?>
<!-- Generator: Adobe Illustrator 22.1.0, SVG Export Plug-In . SVG Version: 6.00 Build 0)  -->
<svg version="1.1" id="Layer_1" xmlns="http://www.w3.org/2000/svg" xmlns:xlink="http://www.w3.org/1999/xlink" x="0px" y="0px"
	 viewBox="0 0 500 500" style="enable-background:new 0 0 500 500;" xml:space="preserve">
<style type="text/css">
	.st0{fill:#E6E6E6;}
	.st1{fill:none;stroke:#808080;stroke-width:2.34;stroke-linecap:round;stroke-miterlimit:10;}
	.st2{fill:#C5C5C5;stroke:#464646;stroke-width:1.96;stroke-miterlimit:10;}
	.st3{fill:#8C8C8C;}
	.st4{fill:none;stroke:#464646;stroke-width:1.96;stroke-miterlimit:10;}
	.st5{fill:#C5C5C5;}
	.st6{fill:#FFFFFF;}
	.st7{fill:#464646;}
	.st8{fill:#C5C5C5;stroke:#464646;stroke-width:1.63;stroke-miterlimit:10;}
	.st9{fill:none;stroke:#464646;stroke-width:1.63;stroke-miterlimit:10;}
	.st10{fill:#C5C5C5;stroke:#464646;stroke-width:1.71;stroke-linecap:round;stroke-linejoin:round;}
	.st11{fill:none;stroke:#464646;stroke-width:1.71;stroke-linecap:round;stroke-linejoin:round;}
	.st12{fill:#C5C5C5;stroke:#464646;stroke-width:2.27;stroke-linecap:round;stroke-linejoin:round;}
	.st13{fill:none;stroke:#464646;stroke-width:2.27;stroke-linecap:round;stroke-linejoin:round;}
	.st14{fill:none;stroke:#464646;stroke-width:1.84;stroke-linecap:round;stroke-miterlimit:10;}
</style>
<title>Artboard 1</title>
<ellipse transform="matrix(0.9999 -1.623086e-02 1.623086e-02 0.9999 -6.4086 1.6568)" class="st0" cx="98.9" cy="395.6" rx="98.8" ry="22.8"/>
<ellipse transform="matrix(0.9999 -1.623085e-02 1.623085e-02 0.9999 -6.2339 6.7442)" class="st0" cx="412.4" cy="387.4" rx="87.5" ry="20.2"/>
<ellipse class="st0" cx="270.8" cy="427.2" rx="117.6" ry="27.1"/>
<ellipse class="st0" cx="217.6" cy="355.3" rx="83.6" ry="19.3"/>
<line class="st1" x1="279" y1="433.1" x2="338.6" y2="433.1"/>
<line class="st1" x1="346.8" y1="387.5" x2="406.5" y2="387.5"/>
<line class="st1" x1="426.4" y1="385.1" x2="452.1" y2="385.1"/>
<line class="st1" x1="452.1" y1="392.1" x2="477.9" y2="392.1"/>
<line class="st1" x1="232.2" y1="440.1" x2="291.9" y2="440.1"/>
<line class="st1" x1="32.2" y1="405" x2="91.8" y2="405"/>
<line class="st1" x1="128.1" y1="399.2" x2="187.7" y2="399.2"/>
<line class="st1" x1="174.9" y1="364.1" x2="224" y2="364.1"/>
<line class="st1" x1="185.4" y1="358.2" x2="256.8" y2="358.2"/>
<line class="st1" x1="155" y1="352.4" x2="187.7" y2="352.4"/>
<line class="st1" x1="60.2" y1="396.8" x2="86" y2="396.8"/>
<line class="st1" x1="295.4" y1="415.5" x2="355" y2="415.5"/>
<line class="st1" x1="170.2" y1="431.9" x2="247.4" y2="431.9"/>
<path class="st2" d="M91.1,323.1c-3.4,7-5.7,13.1-6.1,15.7c-0.7,3.2-0.2,6.4,1.3,9.3c2,3.8,12.2,12.4,13.8,16.5
	c0.6,5.6-8.3,16.8-9.8,19c-1.3,1.9-3.8,7.5-4.2,10.3c-1.6,0.6-15.5,1.6-18.8,0.9c-4.7-1.1-5-2.4-5-2.4l5.1-9.3
	c2.6,1.9,5.4,3.5,8.3,4.9c4.3,1.8,5.1,2.4,6.3,1.8c1.9-3.2,7-15.8,7.4-20.4c-1.6-3.8-16.9-12.6-18.9-15.6s-0.2-10.7-0.2-13.3
	s10.5-28.2,10.5-28.2L91.1,323.1z"/>
<path class="st3" d="M95.2,376.5c-2.1,3.3-4.3,6.1-5,7.1c-1.3,1.9-3.8,7.5-4.2,10.3c-1.6,0.6-15.5,1.6-18.8,0.9
	c-4.7-1.1-5-2.4-5-2.4l5.1-9.3c2.6,1.9,5.4,3.5,8.3,4.9c4.3,1.8,5.1,2.4,6.3,1.8c2.7-5.4,5-11.1,6.7-16.9L95.2,376.5z"/>
<path class="st4" d="M91.1,323.1c-3.4,7-5.7,13.1-6.1,15.7c-0.7,3.2-0.2,6.4,1.3,9.3c2,3.8,12.2,12.4,13.8,16.5
	c0.6,5.6-8.3,16.8-9.8,19c-1.3,1.9-3.8,7.5-4.2,10.3c-1.6,0.6-15.5,1.6-18.8,0.9c-4.7-1.1-5-2.4-5-2.4l5.1-9.3
	c2.6,1.9,5.4,3.5,8.3,4.9c4.3,1.8,5.1,2.4,6.3,1.8c1.9-3.2,7-15.8,7.4-20.4c-1.6-3.8-16.9-12.6-18.9-15.6s-0.2-10.7-0.2-13.3
	s10.5-28.2,10.5-28.2L91.1,323.1z"/>
<path class="st5" d="M55.4,158.4c-0.4,7-0.6,19-5.1,23.8s-40,23.1-41.9,28.6s-2.8,27.4-1.9,30.8c0.6,2.3,3.8,5.1,5.6-1.6
	c1.5-5.6,2.7-8.6,2.3-11.1s-4.7-7.2-2.3-10.5s27-9.6,29.4-10.3s28.3-7,32.7-13.8c2.5-3.8,4.5-7.9,6-12.2"/>
<path class="st3" d="M8.4,210.9c-1.9,5.5-2.8,27.4-1.9,30.8c0.6,2.3,3.8,5.1,5.6-1.6c1.5-5.6,2.7-8.6,2.3-11.1s-4.7-7.2-2.3-10.5"/>
<path class="st4" d="M55.4,158.4c-0.4,7-0.6,19-5.1,23.8s-40,23.1-41.9,28.6s-2.8,27.4-1.9,30.8c0.6,2.3,3.8,5.1,5.6-1.6
	c1.5-5.6,2.7-8.6,2.3-11.1s-4.7-7.2-2.3-10.5s27-9.6,29.4-10.3s28.3-7,32.7-13.8c2.5-3.8,4.5-7.9,6-12.2"/>
<g id="Body">
	<path class="st6" d="M68.5,64.6c-2.6-1.6-4.6-3.3-9.7-2.1c-6.4,1.6-6.3,2-12.9,4.4c-5.5,0.5-11.1,0.2-16.5-0.9
		c1.5,4.1,0.4,18.5-1.8,24.9c3.3,1.7,10.7,8.6,13.1,12.9c2.7,5,15,16.1,16.6,20.3c-0.2,5.5-2.9,13.9-5.7,18.8s-30.3,33.5-33.2,41.9
		c-0.4,9.7,4.6,60.7,6.1,73.8c1,6.6,8.3,20.6,10.6,28.3c-1.4,8.1-3.7,28-1.4,40.7s8.1,20.4,10.7,25.2c3.7,7,15.8,20.2,19.3,23.9
		c2.6,2.7-7.7,20.1-9.6,21.8s-11.9-1.7-15.3-1.6s-7.2,4.5-7.2,6.5c1.5,0.7,23.9,0,26.9,0c1.7-2.8,18.4-28,18.4-30.9
		c0-3.5-7.4-15.6-7.4-22c0-6.2,13.6-23.3,15.9-26.3c6.8,12,20.9,29.4,31.4,42.4c5.1,6.3,15.3,19.8,33.8,26.4
		c10.3,3.8,21.3,5.4,32.3,4.7c3.4-0.2,6.7-1.6,8-3.8c0.4-1.6-11.1-0.2-19.3-2.2c-9.5-2.5-18.6-6.2-27.2-11
		c-8.9-4.9-27.6-29.5-29.6-32.1c-11.2-15-16.4-28.9-19.4-37c-3.4-9.1-12.9-40.5-14.8-57.6c-0.7-6.3,6.3-43.4,7.4-48.7
		c1-4.9,5.8-27.2,6-32.4c0.3-6.4-3.9-32.4-4.8-36.3c1.5-2.6,12.4-8.7,16.1-14.7c4.5-7.4,3.8-28,3.4-31.9c-0.6-5.7-1.9-9.2-8.8-13.2
		C95.7,74.7,68.5,64.6,68.5,64.6z"/>
	<path class="st5" d="M67.4,66.2c3.6,1.8,3.6,6.3,1.2,11.1c-3,5.8-11.7,6.8-18.8,7.2c3.4,2.5,7.6,7,9.1,11.2s1.2,10.3-2.8,13.4
		c1.2,2.7,5.6,7.2,7,11.8c2,6.6-2.7,19.8-4.3,24.2c-1.6,4.2-10.5,17.9-11.5,23.4s-4.4,41.7-4.7,50.8c-0.4,8.8-0.3,31.7,0.6,45.5
		c0.2,3-0.4,5.9-1.6,8.6c-2.6,5.6-6.1,11.5-7.2,18c-1.4,8.1-2.9,23.5-0.5,36.2s8.1,20.4,10.7,25.2c3.7,7,15.8,20.2,19.4,23.9
		c2.6,2.7-7.7,20.1-9.6,21.8s-11.9-1.7-15.3-1.6s-7.2,4.5-7.2,6.5c1.5,0.7,23.9,0,26.9,0c1.7-2.8,18.4-28,18.4-30.9
		c0-3.5-7.4-15.6-7.4-22c0-6.2,13.6-23.3,15.9-26.3c6.8,12,20.9,29.4,31.4,42.4c5.1,6.3,15.3,19.8,33.8,26.4
		c10.3,3.8,21.3,5.4,32.3,4.7c3.4-0.2,6.7-1.6,8-3.8c0.4-1.6-11.1-0.2-19.3-2.2c-9.5-2.5-18.6-6.2-27.2-11
		c-8.9-4.9-27.6-29.5-29.6-32.1c-11.2-15-16.4-28.9-19.4-37c-3.4-9.1-12.9-40.5-14.8-57.6c-0.7-6.3,6.3-43.4,7.4-48.7
		c1-4.9,5.8-27.2,6-32.4c0.3-6.4-3.9-32.4-4.8-36.3c1.5-2.6,12.4-8.7,16.1-14.7c4.5-7.4,3.8-28,3.4-31.9c-0.6-5.7-1.9-9.2-8.8-13.2
		C95.7,74.7,67.4,66.2,67.4,66.2z"/>
	<path class="st3" d="M116.8,366.7c5.1,6.3,15.3,19.8,33.8,26.4c10.3,3.8,21.3,5.4,32.3,4.7c3.4-0.2,6.7-1.6,8-3.8
		c0.4-1.6-11.1-0.2-19.3-2.2c-9.5-2.5-18.6-6.2-27.2-11c-5.4-3-14.3-13.1-21-21.2"/>
	<path class="st3" d="M61.5,385.6c-2.6,5.1-6.4,10.7-7.5,11.7c-2,1.8-11.8-0.4-15.2-0.3s-7.2,4.5-7.2,6.5c1.5,0.7,23.8,0,26.9,0
		c0.8-1.3,4.9-7.6,9.1-14.1"/>
	<path class="st7" d="M61.9,64.1c1.8,0.1,3.4,0.7,4.8,1.8l0.7,0.4l0.2,0.1l0.2,0.1c7.5,2.8,27.8,10.4,31.1,12.3
		c6.1,3.5,7.3,6.3,7.8,11.6c0.4,4.7,0.8,24.2-3.2,30.7c-2,3.3-6.6,6.8-10.3,9.5c-3.2,2.4-5.1,3.9-5.8,5.2l-0.4,0.7l0.2,0.8
		c0.9,3.9,5,29.6,4.8,35.8c-0.2,4.5-4,22.8-5.5,29.8c-0.2,1-0.4,1.8-0.5,2.3c-0.8,4.1-8.2,42.5-7.4,49.3c1.9,17,11.3,48.4,14.9,58
		v0.1c3.1,8.3,8.3,22.3,19.6,37.4c0.8,1.1,20.5,27.3,30.2,32.6c8.7,4.9,18,8.6,27.7,11.1c4.5,0.9,9,1.3,13.6,1.3l1.9,0
		c-1.2,0.5-2.4,0.7-3.7,0.8c-1.7,0.1-3.4,0.1-5,0.1c-9,0-18-1.6-26.5-4.7c-17.1-6.1-26.9-18.3-32.2-24.8l-0.8-1
		c-10.3-12.7-24.5-30.1-31.2-42.1l-1.5-2.6l-1.8,2.4l-0.5,0.7c-10.7,13.8-15.7,22.3-15.7,26.8c0,4.1,2.5,9.8,4.7,14.8
		c1.2,2.7,2.7,6,2.7,7.1c-0.4,2-5.8,10.9-16,26.7l-1.5,2.3c-1.3,0-3.5,0-6,0.1c-4.1,0.1-9.2,0.2-13.2,0.2c-1.6,0-2.8,0-3.7,0
		c1-1.4,2.8-2.9,4.3-2.9l0,0c1,0,2.7,0.2,4.4,0.4c2.4,0.3,4.8,0.5,7.3,0.6c2.3,0,3.8-0.4,4.7-1.2c1.8-1.6,10.6-14.8,10.8-20.4
		c0.1-1.1-0.2-2.1-0.9-2.9c-3.8-4-15.5-16.9-19-23.5c-0.5-1-1.1-2-1.8-3.2c-2.9-4.9-6.9-11.6-8.7-21.5c-2.2-12.1,0-31.5,1.4-40
		l0.1-0.5l-0.2-0.4c-1.4-4.2-3-8.3-4.8-12.3c-2.5-6-5.1-12.1-5.7-15.7c-1.6-13.7-6.4-62.9-6.1-73.1c2-5.1,13.5-18.4,22-28.1
		c6.3-7.2,9.9-11.3,10.9-13.3c2.8-4.9,5.8-13.6,5.9-19.7v-0.4l-0.2-0.4c-1-2.5-4.5-6.4-8.7-10.8c-3.4-3.6-6.9-7.4-8.1-9.6
		c-2.2-4-8.5-10.2-12.5-12.9c1.6-5.9,2.5-15.8,1.9-21.5c3.1,0.4,6.3,0.6,9.5,0.7c1.6,0,3.2-0.1,4.8-0.3h0.2l0.2-0.1
		c2.3-0.8,3.9-1.4,5.1-1.9c2.5-1,5-1.8,7.7-2.4C60.1,64.3,61,64.2,61.9,64.1 M61.9,62.2c-1.1,0-2.1,0.2-3.2,0.4
		c-6.4,1.6-6.3,2-12.9,4.4c-1.5,0.2-3,0.3-4.5,0.2c-4,0-8-0.3-12-1.1c1.5,4.1,0.4,18.5-1.8,24.9c3.3,1.7,10.7,8.6,13.1,12.9
		c2.7,5,15,16.1,16.6,20.3c-0.2,5.5-2.9,13.9-5.7,18.8s-30.3,33.5-33.2,41.9c-0.4,9.7,4.6,60.7,6.1,73.8c1,6.6,8.3,20.6,10.6,28.3
		c-1.4,8.1-3.7,28-1.4,40.7s8.1,20.4,10.7,25.2c3.7,7,15.8,20.2,19.3,23.9c2.6,2.7-7.8,18.8-9.7,20.5c-1,0.6-2.2,0.8-3.4,0.7
		c-3.8,0-9.3-1-11.7-1h-0.1c-3.5,0-7.2,4.5-7.2,6.5c2.2,0.3,4.4,0.4,6.6,0.3c6.7,0,16.5-0.3,19.6-0.3h0.7c1.7-2.8,18.4-28,18.4-30.9
		c0-3.5-7.4-15.6-7.4-22c0-6.2,13.6-23.3,15.9-26.3c6.8,12,20.9,29.4,31.4,42.4c5.1,6.3,15.3,19.8,33.8,26.4
		c8.7,3.2,17.9,4.8,27.2,4.8c1.7,0,3.4,0,5.2-0.2c3.4-0.2,6.7-1.6,8-3.8c0.4-1.6-11.1-0.2-19.3-2.2c-9.5-2.5-18.6-6.2-27.2-11
		c-8.9-4.9-27.6-29.5-29.6-32.1c-11.2-15-16.4-28.9-19.4-37c-3.4-9.1-12.9-40.5-14.8-57.6c-0.7-6.3,6.3-43.4,7.4-48.7
		c1-4.9,5.8-27.2,6-32.4c0.3-6.4-3.9-32.4-4.8-36.3c1.5-2.6,12.4-8.7,16.1-14.7c4.5-7.4,3.8-28,3.4-31.9c-0.6-5.7-1.9-9.2-8.8-13.2
		c-4.2-2.4-31.4-12.4-31.4-12.4C66.5,63.4,64.9,62.1,61.9,62.2L61.9,62.2z"/>
</g>
<g id="face">
	<path class="st7" d="M23.2,64.7c1.4-0.3,9.7,1.3,11.6,1.8c0.1,2.1-1,5.6-1.2,9.7s4.9,8.9,5,12.3c-1.2,3-4.1,5-7.4,4.9
		c-3.7,0-11.3-6-11.3-8.8c0-1.4,0.4-2,0-2.9c-0.6-1.5-2.3-1.4-2.3-4.5c0-2.8,1.6-5.1,1.8-6.6s0.1-2,0.3-2.8
		C20.5,66.3,21.7,65.1,23.2,64.7z"/>
	<path class="st3" d="M38.8,88.5c0.9-2.1-5.2-8.2-5-12.3s1.3-7.6,1.2-9.7C33,66,24.7,64.4,23.2,64.7c-1.5,0.5-2.7,1.6-3.2,3.1
		c-0.2,0.7,0,1.3-0.3,2.8s-1.8,3.8-1.8,6.6c0,3.1,1.8,3.7,2.3,4.5S38.1,89.9,38.8,88.5z"/>
	<path class="st4" d="M37.2,68.1c-1.9-0.4-12.6-3.7-14-3.4c-1.5,0.5-2.7,1.6-3.2,3.1c-0.2,0.7,0,1.3-0.3,2.8s-1.8,3.8-1.8,6.6
		c0,3.1,3.7,5.7,4.1,6.5"/>
	<path class="st7" d="M23.2,64.7c-0.7-0.5-2.9,1.3-3.5,2.9c-0.2,0.7-0.6,2.6-0.1,3C23,73.2,27.4,67.8,23.2,64.7z"/>
	<path class="st7" d="M46.6,71.2c0,2.8,4.7,9.2,9.4,9.4s7.7-1.7,10.1-4.8s1.2-6.7,0.1-8.3s-3.8-2-6.3-1.9
		C57,65.8,46.6,70.7,46.6,71.2z"/>
	<ellipse transform="matrix(0.573 -0.8196 0.8196 0.573 -35.9158 75.7392)" class="st6" cx="54.7" cy="72.3" rx="3.8" ry="1.8"/>
	<ellipse transform="matrix(0.573 -0.8196 0.8196 0.573 -36.21 75.1619)" class="st7" cx="54" cy="72.3" rx="1.4" ry="0.7"/>
	<path class="st7" d="M95.6,87.3c7.2-1.5,25.4,5.7,23.2,14.7c-1.3,5.4-9.8,10.5-14.7,10.6c-3.5,0.1-12.8-5.6-13.3-14.9
		C90.7,94.7,93.1,87.8,95.6,87.3z"/>
</g>
<path class="st5" d="M51.4,161.1c0.4,7,1.5,19-2.4,24.2s-37.1,27.5-38.4,33.2s0.4,27.6,1.6,30.8c0.9,2.2,4.3,4.6,5.4-2.3
	c0.9-5.7,1.7-8.8,1.1-11.3s-5.5-6.7-3.5-10.2s25.7-12.6,28-13.6s27.3-10.2,30.9-17.4c2.1-4,3.6-8.3,4.6-12.8"/>
<path class="st3" d="M10.6,218.5c-1.3,5.7,0.4,27.6,1.6,30.8c0.9,2.2,4.3,4.6,5.4-2.3c0.9-5.7,1.7-8.8,1.1-11.3s-5.5-6.7-3.5-10.1"
	/>
<path class="st4" d="M51.4,161.1c0.4,7,1.5,19-2.4,24.2s-37.1,27.5-38.4,33.2s0.4,27.6,1.6,30.8c0.9,2.2,4.3,4.6,5.4-2.3
	c0.9-5.7,1.7-8.8,1.1-11.3s-5.5-6.7-3.5-10.2s25.7-12.6,28-13.6s27.3-10.2,30.9-17.4c2.1-4,3.6-8.3,4.6-12.8"/>
<path class="st8" d="M428.6,323.9c2.8,5.8,4.7,10.9,5.1,13.1c0.5,2.6,0.2,5.3-1.1,7.7c-1.6,3.1-10.2,10.3-11.4,13.7
	c-0.5,4.6,6.9,14,8.2,15.8c1.6,2.6,2.8,5.5,3.4,8.5c1.4,0.5,12.9,1.4,15.6,0.7c3.9-0.9,4.2-2,4.2-2l-4.3-7.7
	c-2.2,1.6-4.5,2.9-6.9,4.1c-3.5,1.5-4.3,2-5.3,1.5c-1.5-2.6-5.8-13.1-6.2-17c1.4-3.2,14.1-10.4,15.7-13s0.2-8.9,0.2-11.1
	s-8.7-23.4-8.7-23.4L428.6,323.9z"/>
<path class="st3" d="M425.2,368.3c1.8,2.7,3.6,5.1,4.1,5.9c1.6,2.6,2.8,5.5,3.4,8.5c1.4,0.5,12.9,1.4,15.6,0.7c3.9-0.9,4.2-2,4.2-2
	l-4.3-7.7c-2.2,1.6-4.5,2.9-6.9,4.1c-3.5,1.5-4.3,2-5.3,1.5c-2.3-4.5-4.1-9.2-5.5-14L425.2,368.3z"/>
<path class="st9" d="M428.6,323.9c2.8,5.8,4.7,10.9,5.1,13.1c0.5,2.6,0.2,5.3-1.1,7.7c-1.6,3.1-10.2,10.3-11.4,13.7
	c-0.5,4.6,6.9,14,8.2,15.8c1.6,2.6,2.8,5.5,3.4,8.5c1.4,0.5,12.9,1.4,15.6,0.7c3.9-0.9,4.2-2,4.2-2l-4.3-7.7
	c-2.2,1.6-4.5,2.9-6.9,4.1c-3.5,1.5-4.3,2-5.3,1.5c-1.5-2.6-5.8-13.1-6.2-17c1.4-3.2,14.1-10.4,15.7-13s0.2-8.9,0.2-11.1
	s-8.7-23.4-8.7-23.4L428.6,323.9z"/>
<path class="st5" d="M458.2,187.1c0.3,5.8,0.5,15.8,4.3,19.8s33.2,19.2,34.8,23.8s2.3,22.8,1.5,25.5c-0.5,1.9-3.1,4.2-4.6-1.4
	c-1.2-4.6-2.2-7.1-1.9-9.2s3.9-6,1.9-8.7s-22.4-8-24.4-8.6s-23.5-5.8-27.1-11.4c-2.1-3.1-3.8-6.5-5-10.1"/>
<path class="st3" d="M497.3,230.7c1.6,4.6,2.3,22.8,1.5,25.5c-0.5,1.9-3.1,4.2-4.6-1.4c-1.2-4.6-2.2-7.1-1.9-9.2s3.9-6,1.9-8.7"/>
<path class="st9" d="M458.2,187.1c0.3,5.8,0.5,15.8,4.3,19.8s33.2,19.2,34.8,23.8s2.3,22.8,1.5,25.5c-0.5,1.9-3.1,4.2-4.6-1.4
	c-1.2-4.6-2.2-7.1-1.9-9.2s3.9-6,1.9-8.7s-22.4-8-24.4-8.6s-23.5-5.8-27.1-11.4c-2.1-3.1-3.8-6.5-5-10.1"/>
<g id="Body-2">
	<path class="st6" d="M447.4,109.2c2.1-1.3,3.9-2.8,8.1-1.7c5.3,1.3,5.2,1.7,10.8,3.7c4.6,0.4,9.2,0.2,13.7-0.7
		c-1.3,3.4-0.3,15.3,1.5,20.7c-2.8,1.4-8.9,7.2-10.9,10.7c-2.3,4.2-12.5,13.4-13.8,16.8c0.1,4.6,2.4,11.5,4.7,15.6
		s25.1,27.8,27.6,34.8c0.3,8.1-3.8,50.4-5.1,61.3c-0.8,5.5-6.9,17.1-8.8,23.5c1.1,6.7,3.1,23.2,1.2,33.8s-6.7,16.9-8.9,21
		c-3.1,5.8-13.1,16.8-16.1,19.9c-2.1,2.2,6.4,16.7,8,18.1s9.9-1.4,12.7-1.4s6,3.8,6,5.4c-1.2,0.6-19.8,0-22.3,0
		c-1.4-2.3-15.3-23.3-15.3-25.7c0-2.9,6.2-13,6.2-18.2s-11.3-19.4-13.2-21.8c-5.7,10-17.4,24.4-26.1,35.2
		c-4.2,5.2-12.8,16.4-28.1,22c-8.6,3.2-17.7,4.5-26.9,3.9c-2.8-0.2-5.6-1.3-6.6-3.2c-0.3-1.3,9.2-0.2,16.1-1.8
		c7.9-2.1,15.5-5.1,22.6-9.1c7.4-4.1,23-24.5,24.6-26.7c6.9-9.4,12.3-19.7,16.1-30.7c2.8-7.6,10.8-33.7,12.3-47.9
		c0.6-5.2-5.2-36.1-6.1-40.4c-0.9-4.1-4.8-22.6-5-26.9c-0.2-5.3,3.2-26.9,4-30.2c-1.3-2.2-10.3-7.2-13.4-12.2
		c-3.7-6.1-3.2-23.3-2.9-26.5c0.5-4.7,1.6-7.7,7.3-10.9C424.8,117.5,447.4,109.2,447.4,109.2z"/>
	<path class="st5" d="M448.3,110.5c-3,1.5-3,5.2-1,9.2c2.5,4.8,9.7,5.6,15.6,6c-2.9,2.1-6.3,5.9-7.6,9.3s-1,8.6,2.4,11.2
		c-1,2.2-4.6,5.9-5.8,9.8c-1.7,5.5,2.2,16.4,3.6,20.1c1.3,3.5,8.7,14.8,9.5,19.5s3.6,34.6,3.9,42.2c0.3,7.3,0.2,26.3-0.5,37.8
		c-0.1,2.5,0.3,4.9,1.4,7.1c2.2,4.6,5.1,9.6,6,15c1.1,6.7,2.4,19.5,0.5,30.1s-6.7,16.9-8.9,21c-3.1,5.8-13.1,16.8-16.1,19.9
		c-2.1,2.2,6.4,16.7,8,18.1s9.9-1.4,12.7-1.4s6,3.8,6,5.4c-1.2,0.6-19.8,0-22.3,0c-1.4-2.3-15.3-23.3-15.3-25.7
		c0-2.9,6.2-13,6.2-18.2s-11.3-19.4-13.2-21.9c-5.7,10-17.4,24.4-26.1,35.2c-4.2,5.2-12.8,16.4-28.1,22c-8.6,3.2-17.7,4.5-26.9,3.9
		c-2.8-0.2-5.6-1.3-6.6-3.2c-0.3-1.3,9.2-0.2,16.1-1.8c7.9-2.1,15.5-5.1,22.6-9.1c7.4-4.1,23-24.5,24.6-26.7
		c6.9-9.4,12.3-19.7,16.1-30.7c2.8-7.6,10.8-33.7,12.3-47.9c0.6-5.2-5.2-36.1-6.1-40.4c-0.9-4.1-4.8-22.6-5-26.9
		c-0.2-5.3,3.2-26.9,4-30.2c-1.3-2.2-10.3-7.2-13.4-12.2c-3.7-6.1-3.2-23.3-2.9-26.5c0.5-4.7,1.6-7.7,7.3-10.9
		C424.8,117.5,448.3,110.5,448.3,110.5z"/>
	<path class="st3" d="M407.3,360.2c-4.2,5.2-12.8,16.4-28.1,22c-8.6,3.2-17.7,4.5-26.9,3.9c-2.8-0.2-5.6-1.3-6.6-3.2
		c-0.3-1.3,9.2-0.2,16.1-1.8c7.9-2.1,15.5-5.1,22.6-9.1c4.5-2.5,11.9-10.9,17.4-17.6"/>
	<path class="st3" d="M453.2,375.9c2.2,4.3,5.3,8.9,6.2,9.7c1.6,1.5,9.8-0.3,12.6-0.3s6,3.8,6,5.4c-1.2,0.6-19.8,0-22.3,0
		c-0.7-1.1-4.1-6.3-7.5-11.8"/>
	<path class="st7" d="M452.9,108.7L452.9,108.7c0.8,0,1.5,0.1,2.2,0.3c2.2,0.5,4.3,1.1,6.4,2c1,0.4,2.3,0.9,4.2,1.6h0.1h0.1
		c1.3,0.2,2.7,0.2,4,0.2c2.6,0,5.3-0.2,7.9-0.5c-0.4,6,0.2,12,1.6,17.9c-3.3,2.2-8.5,7.3-10.4,10.7c-1,1.8-3.9,5-6.7,8
		c-3.4,3.7-6.4,6.9-7.2,9l-0.1,0.3v0.3c0.2,5.1,2.6,12.3,4.9,16.4c0.9,1.6,3.9,5.1,9.1,11c7,8,16.6,19,18.3,23.3
		c0.2,8.5-3.7,49.4-5.1,60.8c-0.4,3-2.6,8.1-4.7,13.1c-1.5,3.3-2.8,6.8-4,10.2l-0.1,0.4l0.1,0.4c1.2,7.1,3,23.2,1.2,33.2
		c-1.5,8.2-4.8,13.8-7.2,17.8c-0.6,1-1.1,1.8-1.5,2.6c-2.9,5.5-12.6,16.2-15.8,19.5c-0.6,0.7-0.9,1.5-0.8,2.4c0.2,4.7,7.5,15.6,9,17
		c0.8,0.7,2,1,3.9,1c2-0.1,4-0.2,6-0.5c1.5-0.2,2.9-0.3,3.7-0.3c1.3,0,2.7,1.3,3.6,2.4c-0.7,0-1.7,0-3.1,0c-3.3,0-7.5-0.1-10.9-0.1
		c-2.1,0-3.9-0.1-5-0.1l-1.2-1.9c-8.5-13.1-13-20.6-13.3-22.2c0-1,1.3-3.7,2.2-5.9c1.8-4.2,3.9-8.9,3.9-12.3
		c0-3.7-4.1-10.8-13.1-22.2l-0.5-0.6l-1.5-2l-1.2,2.3c-5.6,10-17.4,24.4-26,35l-0.6,0.8c-4.4,5.4-12.5,15.5-26.8,20.6
		c-7,2.6-14.5,3.9-22,3.9c-1.4,0-2.8,0-4.2-0.1c-1-0.1-2.1-0.3-3.1-0.7h1.5c3.8,0,7.5-0.3,11.2-1.1c8-2.1,15.8-5.2,23-9.3
		c8.1-4.4,24.4-26.2,25.1-27.1c7-9.5,12.5-20,16.3-31.1v-0.1c3-8,10.8-34.1,12.4-48.2c0.6-5.7-5.4-37.5-6.1-41
		c-0.1-0.5-0.2-1.1-0.4-1.9c-1.2-5.7-4.4-21-4.5-24.7c-0.2-5.1,3.2-26.5,4-29.7l0.1-0.6l-0.3-0.6c-0.6-1.1-2.2-2.3-4.8-4.3
		c-3.1-2.3-6.9-5.2-8.6-7.9c-3.3-5.4-3-21.6-2.6-25.5c0.4-4.4,1.4-6.8,6.5-9.7c2.8-1.6,19.6-7.9,25.9-10.2l0.1-0.1l0.1-0.1
		c0.2-0.1,0.4-0.2,0.6-0.4C450,109.4,451.4,108.8,452.9,108.7 M452.8,107.2c-2.4,0-3.8,1.1-5.5,2.1c0,0-22.6,8.3-26.1,10.3
		c-5.7,3.3-6.9,6.2-7.3,10.9c-0.3,3.2-0.9,20.4,2.9,26.5c3,5,12.1,10,13.4,12.2c-0.8,3.2-4.2,24.8-4,30.2c0.2,4.4,4.1,22.8,5,26.9
		c0.9,4.4,6.7,35.2,6.1,40.5c-1.6,14.2-9.5,40.3-12.3,47.9c-3.8,11-9.2,21.4-16.1,30.7c-1.6,2.1-17.1,22.6-24.6,26.7
		c-7.1,4-14.7,7-22.6,9.1c-6.8,1.6-16.4,0.5-16.1,1.8c1,1.9,3.8,3,6.6,3.2c1.5,0.1,2.9,0.1,4.3,0.1c7.7,0,15.3-1.3,22.6-4
		c15.4-5.5,23.9-16.7,28.1-22c8.7-10.9,20.5-25.3,26.1-35.3c1.9,2.5,13.2,16.7,13.2,21.8s-6.2,15.4-6.2,18.2
		c0,2.4,13.9,23.4,15.3,25.7h0.5c2.6,0,10.7,0.2,16.3,0.2c1.8,0.1,3.7,0,5.5-0.2c0-1.7-3.1-5.4-6-5.4l0,0c-2,0-6.6,0.9-9.7,0.9
		c-1,0.1-2-0.1-2.8-0.6c-1.6-1.5-10.2-14.8-8.1-17c2.9-3.1,13-14.1,16.1-19.9c2.1-4,7-10.5,8.9-21s0-27.1-1.2-33.8
		c1.9-6.4,8-18,8.8-23.5c1.3-10.9,5.4-53.2,5.1-61.3c-2.4-7-25.2-30.7-27.6-34.8s-4.6-11-4.7-15.6c1.4-3.4,11.5-12.7,13.8-16.8
		c1.9-3.6,8.1-9.3,10.9-10.7c-1.8-5.3-2.7-17.2-1.5-20.7c-3.3,0.6-6.6,1-10,0.9c-1.2,0-2.5,0-3.7-0.2c-5.5-2-5.4-2.4-10.8-3.7
		C454.6,107.2,453.7,107.1,452.8,107.2L452.8,107.2z"/>
</g>
<g id="face-2">
	<path class="st7" d="M485,109.2c-1.2-0.3-8.1,1.1-9.7,1.5c-0.1,1.7,0.8,4.6,1,8s-4,7.4-4.2,10.2c1,2.5,3.4,4.2,6.1,4.1
		c3,0,9.4-5,9.4-7.3c0-1.2-0.3-1.7,0-2.4c0.5-1.2,1.9-1.2,1.9-3.7c0-2.3-1.3-4.2-1.5-5.5s-0.1-1.7-0.3-2.3
		C487.3,110.5,486.3,109.6,485,109.2z"/>
	<path class="st3" d="M472.1,129c-0.8-1.7,4.3-6.8,4.2-10.2s-1.1-6.3-1-8c1.6-0.4,8.5-1.8,9.7-1.5c1.3,0.4,2.3,1.3,2.7,2.6
		c0.2,0.6,0,1.1,0.3,2.3s1.5,3.2,1.5,5.5c0,2.6-1.5,3.1-1.9,3.7S472.6,130.2,472.1,129z"/>
	<path class="st9" d="M473.4,112.1c1.6-0.4,10.5-3.1,11.6-2.8c1.3,0.4,2.3,1.3,2.7,2.6c0.2,0.6,0,1.1,0.3,2.3s1.5,3.2,1.5,5.5
		c0,2.6-3,4.7-3.4,5.4"/>
	<path class="st7" d="M485,109.2c0.6-0.4,2.4,1.1,2.9,2.4c0.2,0.6,0.5,2.2,0.1,2.5C485.2,116.3,481.5,111.8,485,109.2z"/>
	<path class="st7" d="M465.6,114.7c0,2.3-3.9,7.6-7.8,7.8c-3.3,0.3-6.5-1.2-8.4-3.9c-2-2.5-1-5.6-0.1-6.9s3.1-1.7,5.2-1.6
		C457,110.2,465.6,114.2,465.6,114.7z"/>
	<ellipse transform="matrix(0.8196 -0.573 0.573 0.8196 16.5558 283.768)" class="st6" cx="458.8" cy="115.6" rx="1.5" ry="3.1"/>
	<ellipse transform="matrix(0.8196 -0.573 0.573 0.8196 16.6618 284.1085)" class="st7" cx="459.4" cy="115.6" rx="0.6" ry="1.2"/>
	<path class="st7" d="M424.9,128c-6-1.2-21.1,4.7-19.3,12.2c1.1,4.5,8.2,8.7,12.2,8.8c2.9,0.1,10.6-4.6,11-12.4
		C428.9,134.1,427,128.4,424.9,128z"/>
</g>
<path class="st5" d="M461.6,189.3c-0.4,5.8-1.3,15.8,2,20.1s30.8,22.9,31.9,27.6s-0.3,22.9-1.4,25.6c-0.8,1.9-3.6,3.8-4.5-1.9
	c-0.7-4.7-1.4-7.3-0.9-9.4s4.6-5.5,2.9-8.4s-21.4-10.5-23.3-11.3s-22.7-8.4-25.7-14.4c-1.7-3.4-3-6.9-3.8-10.6"/>
<path class="st3" d="M495.5,237c1.1,4.7-0.3,22.9-1.4,25.6c-0.8,1.9-3.6,3.8-4.5-1.9c-0.7-4.7-1.4-7.3-0.9-9.4s4.6-5.5,2.9-8.4"/>
<path class="st9" d="M461.6,189.3c-0.4,5.8-1.3,15.8,2,20.1s30.8,22.9,31.9,27.6s-0.3,22.9-1.4,25.6c-0.8,1.9-3.6,3.8-4.5-1.9
	c-0.7-4.7-1.4-7.3-0.9-9.4s4.6-5.5,2.9-8.4s-21.4-10.5-23.3-11.3s-22.7-8.4-25.7-14.4c-1.7-3.4-3-6.9-3.8-10.6"/>
<g id="leg">
	<path class="st5" d="M169.4,350.6c-5.6,0-11-0.1-13.2-0.3c0.8-2.2,2.1-4.3,3.8-5.9c2.2,0.2,4.4,0.7,6.5,1.4
		c1.6,0.5,3.2,0.9,4.8,1.2c0.3,0,0.5,0.1,0.8,0.1c2-0.1,3.9-1.1,5-2.9c1.4-2,5.5-9.2,6.6-16.2c0-0.1,0-0.3,0-0.4
		c-1.2-3.5-6.1-9-11.3-14.7c-4.9-5.4-9.9-11.1-11.9-15.1c-1.4-11.1,3.7-26.6,5.3-31.1l17.1,17.3c0.1,2.4,0.8,17.2,1.5,25
		c0.5,4.1,1.6,8,3.4,11.7c1.1,2.6,2.1,4.9,1.9,6.7c-1.2,4.1-7.8,20-10.1,22.9C178.4,350.6,174.5,350.7,169.4,350.6L169.4,350.6z"/>
	<path class="st7" d="M166.2,268.4l16,16.1c0.1,3.2,0.8,17.1,1.5,24.7c0.5,4.1,1.7,8.2,3.5,12c1.1,2.5,2,4.6,1.9,6.2
		c-1.3,4.4-7.5,19-9.7,22.3c-1.3,0.1-4.5,0.2-9.9,0.2c-5.1,0-9.5-0.1-12-0.2c0.7-1.6,1.7-3,2.9-4.3c2,0.2,4.1,0.7,6,1.4
		c1.6,0.5,3.2,1,4.9,1.3c0.3,0.1,0.6,0.1,0.9,0.1c2.3-0.1,4.4-1.3,5.7-3.2c1.4-2,5.6-9.4,6.8-16.5c0-0.3,0-0.6-0.1-0.8
		c-1.2-3.7-6.2-9.2-11.4-15c-4.8-5.3-9.8-10.9-11.7-14.7C160.2,287.7,164.3,274,166.2,268.4 M165.6,265.3c0,0-7.6,19.5-5.8,32.9
		c3.9,8.3,20.9,23.2,23.2,29.8c-1.1,6.8-5.2,13.9-6.5,15.8c-0.9,1.5-2.5,2.4-4.2,2.5c-0.2,0-0.4,0-0.7,0c-3.8-0.6-8-2.7-11.8-2.7
		c-2.5,2.1-4.4,5.8-4.5,7.5c1.3,0.3,8,0.4,14.2,0.4c3.6,0.1,7.2,0,10.8-0.3c2.2-2.4,9.2-19.4,10.4-23.5c0.5-4.2-4.6-10.1-5.3-18.6
		s-1.5-25.2-1.5-25.2L165.6,265.3L165.6,265.3z"/>
	<path class="st3" d="M180.4,336.2c-1.2,2.6-2.5,5.2-4,7.6c-1,1.7-2.9,2.7-4.9,2.5c-3.8-0.6-8-2.7-11.8-2.7
		c-2.5,2.1-4.4,5.8-4.5,7.5c2.3,0.5,22.2,0.6,25.1,0.1c1.2-1.4,4.1-7.5,6.5-13.3C186.7,337.9,181.3,337.7,180.4,336.2z"/>
	<path class="st7" d="M166.2,268.4l16,16.1c0.1,3.2,0.8,17.1,1.5,24.7c0.5,4.1,1.7,8.2,3.5,12c1.1,2.5,2,4.6,1.9,6.2
		c-1.3,4.4-7.5,19-9.7,22.3c-1.3,0.1-4.5,0.2-9.9,0.2c-5.1,0-9.5-0.1-12-0.2c0.7-1.6,1.7-3,2.9-4.3c2,0.2,4.1,0.7,6,1.4
		c1.6,0.5,3.2,1,4.9,1.3c0.3,0.1,0.6,0.1,0.9,0.1c2.3-0.1,4.4-1.3,5.7-3.2c1.4-2,5.6-9.4,6.8-16.5c0-0.3,0-0.6-0.1-0.8
		c-1.2-3.7-6.2-9.2-11.4-15c-4.8-5.3-9.8-10.9-11.7-14.7C160.2,287.7,164.3,274,166.2,268.4 M165.6,265.3c0,0-7.6,19.5-5.8,32.9
		c3.9,8.3,20.9,23.2,23.2,29.8c-1.1,6.8-5.2,13.9-6.5,15.8c-0.9,1.5-2.5,2.4-4.2,2.5c-0.2,0-0.4,0-0.7,0c-3.8-0.6-8-2.7-11.8-2.7
		c-2.5,2.1-4.4,5.8-4.5,7.5c1.3,0.3,8,0.4,14.2,0.4c3.6,0.1,7.2,0,10.8-0.3c2.2-2.4,9.2-19.4,10.4-23.5c0.5-4.2-4.6-10.1-5.3-18.6
		s-1.5-25.2-1.5-25.2L165.6,265.3L165.6,265.3z"/>
</g>
<path class="st7" d="M145.4,115.6c-1.1,0-2.2-0.3-3.3-0.8c-2.6-1.1-7.1-5-7-9v-0.1v-0.1c0.8-3.4,15.8-11.4,18.8-12.9l1.7-0.9
	l-0.5,1.9c0,0.2-4.2,15.8-5,19.7l-0.1,0.3l-0.2,0.2C148.5,114.9,147,115.5,145.4,115.6L145.4,115.6z"/>
<path class="st7" d="M154.3,93.5c0,0-4.2,15.8-5.1,19.7c-1.1,0.9-2.5,1.5-3.9,1.5c-1,0-2-0.3-2.9-0.7c-2.3-0.9-6.5-4.6-6.4-8.2
	C136.7,102.6,154.3,93.5,154.3,93.5 M157,90.2l-3.4,1.8c-0.1,0-4.5,2.3-9,5c-8.5,5-9.9,7.1-10.2,8.5v0.2v0.2
	c-0.1,4.6,4.9,8.7,7.5,9.8c1.1,0.5,2.3,0.8,3.6,0.8c1.8-0.1,3.5-0.7,4.9-1.9l0.5-0.4l0.1-0.6c0.8-3.8,5-19.5,5-19.6L157,90.2
	L157,90.2z"/>
<g id="Hand">
	<path class="st10" d="M150.8,180c-2.5-1.4-7.8-3.5-8.3-6.4s1.6-38-0.6-42.2c-2.4-4.5-4.2-5.6-7.4-4.2c-3,1.3-13.6-3.1-15.7-4.2
		c-2.9-1.5-2.7-4-1.1-4.3c3.6-0.5,9.4,0.7,9.4,0.7c4.6,0.6,12.9,1.6,19.3,5.2c5.7,4.1,7,20.1,11,24.9s8.5,6.4,12.8,7.9
		s8.6,6.2,10.8,7.9"/>
	<path class="st3" d="M139.7,128.1c-1.5-1.7-3.1-1.9-5.2-0.9c-3,1.3-13.6-3.1-15.7-4.2c-2.9-1.5-2.7-4-1.1-4.3
		c3.6-0.5,9.4,0.7,9.4,0.7c4.6,0.6,12.9,1.6,19.3,5.2"/>
	<path class="st11" d="M150.8,180c-2.5-1.4-7.8-3.5-8.3-6.4s1.6-38-0.6-42.2c-2.4-4.5-4.2-5.6-7.4-4.2c-3,1.3-13.6-3.1-15.7-4.2
		c-2.9-1.5-2.7-4-1.1-4.3c3.6-0.5,9.4,0.7,9.4,0.7c4.6,0.6,12.9,1.6,19.3,5.2c5.7,4.1,7,20.1,11,24.9s8.5,6.4,12.8,7.9
		s8.6,6.2,10.8,7.9"/>
</g>
<g id="body-3">
	<path class="st5" d="M178.4,363.2c-1.3,0-2.7-0.1-4-0.2c1.1-2.4,3.1-4.4,5.6-5.4h0.2c1.6,0.1,3.3,0.5,4.9,1c2.3,0.7,4.6,1.1,7,1.2
		c0.6,0,1.3-0.1,1.9-0.2c0.2-0.1,0.4-0.2,0.5-0.4c1.3-2.2,2.9-7.4,3.5-9.6c1-3.4,1.8-6.9,2.3-10.4c0-0.2,0-0.3-0.1-0.5
		c-3.7-7.2-16.1-31.6-19-43.4c0-0.1-0.1-0.3-0.2-0.4c-4.4-5.1-5-5.8-11-16.4c-3.9-6.9-6.6-17.2-9-26.2c-1.3-4.8-2.4-9.2-3.7-12.9
		c-3.6-10.7-7.9-43.2-7.1-50.6c0.5-4.9,7.3-18.1,11.8-26.8c2.3-4.5,4-7.7,4.4-8.9c1.6-4.9,1.7-10.4,0.3-18.4c0-0.2-0.2-0.5-0.4-0.6
		c-5.7-3.4-13.9-9.3-15.4-11.4c-0.4-0.5-1.5-2.1-1.3-6.3c0.1-3.1,4.4-21,7-26.7c1.1-1.2,13.5-8.9,17.1-8.9c4.5,0.2,6,0.8,7.8,1.7
		c1.2,0.6,2.3,1,3.6,1.4c0.1,0,0.2,0,0.3,0h0.2c1.7-0.4,3.3-1,4.9-1.6c2-0.9,4.2-1.5,6.4-1.5c0.6,0,1.2,0,1.9,0.1
		c3.5,0.4,14.8,9.7,15.6,10.9c0.5,1.6,5.9,24,5.6,31c0,1.3-1.6,2.6-2.9,3.3c-4.1,2.1-12.4,7.3-15.8,9.4c-0.2,0.1-0.4,0.4-0.4,0.6
		c-0.1,1-0.3,2-0.4,2.9c-0.7,4.6-1,9.3-0.8,14c0,0.1,0,0.2,0.1,0.4c3.8,7.2,11.3,24.6,11.9,31c0.3,3.4-1.6,17-3.5,30.1
		c-1.8,12.6-3.6,25.6-3.8,31.6c0,0.1,0,0.3,0.1,0.4l1.5,3.2c6.1,12.9,12.3,26.2,18.7,43.3c1.9,5,3.7,10.1,5.4,15
		c4.6,12.6,8.8,24.5,12.7,32.4c7.4,16.3,12.7,16.8,24.4,18.1l1.9,0.2c8.2,0.9,17.2,1.2,24.2,1.4c-4,1.7-10.1,2.5-17.8,2.5l0,0
		c-6.1,0-12.1-0.5-18.1-1.3c-13.1-1.9-15.7-6-21.9-15.9c-5.1-8-14-28.4-17-38.8c-0.1-0.3-0.4-0.6-0.8-0.6h-0.1
		c-0.3,0-0.6,0.2-0.8,0.5c-1.2,2.3-2.5,4.6-4,6.7c-3.9,6-6.6,10.5-6.6,12.9s1.2,4.4,2.4,6.3c0.8,1.1,1.4,2.3,1.8,3.5
		c-1.1,3.6-2.3,7.1-3.8,10.5c-2.9,6.7-6.1,13.1-7.6,15.3l-3.5,0.3C190.7,362.5,183.4,363.2,178.4,363.2z"/>
	<path class="st7" d="M173.7,81.6L173.7,81.6c4.2,0.2,5.6,0.8,7.4,1.7c1.2,0.6,2.4,1.1,3.7,1.5c0.3,0.1,0.6,0.1,0.9,0
		c1.7-0.4,3.4-1,5-1.7c2-0.9,4.1-1.4,6.3-1.5c0.6,0,1.2,0,1.8,0.1c3.1,0.4,13.4,8.6,14.9,10.5c0.7,2.7,5.8,23.9,5.6,30.6
		c0,0.9-1.3,1.9-2.5,2.5c-4.2,2.1-12.5,7.3-15.8,9.5c-0.4,0.3-0.7,0.7-0.8,1.2c-0.1,1.1-0.2,2-0.4,2.9c-0.7,4.7-1,9.4-0.8,14.2
		c0,0.3,0.1,0.5,0.2,0.7c3.7,7.1,11.2,24.4,11.8,30.7c0.3,3.4-1.6,16.9-3.4,29.9c-1.8,12.6-3.6,25.6-3.8,31.7c0,0.3,0,0.5,0.2,0.8
		l1.5,3.2c6.1,12.8,12.3,26.1,18.7,43.2c1.9,5,3.7,10.1,5.4,15c4.6,12.6,8.9,24.6,12.7,32.5c7.6,16.7,13.4,17.3,25.1,18.6l1.9,0.2
		c6.2,0.7,12.8,1,18.7,1.2c-4,0.7-8.1,1-12.2,1c-6,0-12-0.5-18-1.3c-12.7-1.8-15-5.5-21.3-15.5c-5.1-8-13.9-28.2-16.9-38.6
		c-0.2-0.7-0.8-1.2-1.5-1.2h-0.1c-0.7,0-1.3,0.4-1.6,1c-1.2,2.3-2.5,4.5-3.9,6.6c-4.1,6.3-6.7,10.7-6.7,13.3s1.4,4.9,2.5,6.8
		c0.7,1,1.2,2,1.7,3.1c-1.1,3.4-2.3,6.8-3.8,10c-2.1,5.1-4.5,10.1-7.3,14.9c-0.9,0.1-1.9,0.2-3.1,0.3c-4.8,0.5-12.1,1.1-17.1,1.1
		c-1.1,0-2,0-2.7-0.1c1.1-1.7,2.6-3,4.4-3.9h0.1c1.6,0.1,3.1,0.4,4.6,0.9c2.3,0.7,4.7,1.1,7.2,1.3c0.7,0,1.4-0.1,2.1-0.2
		c0.4-0.1,0.8-0.4,1.1-0.8c1.3-2.2,2.8-7.1,3.6-9.8c1-3.5,1.8-7,2.4-10.6c0-0.3,0-0.7-0.2-1c-3.7-7.2-16-31.5-18.9-43.2
		c-0.1-0.3-0.2-0.5-0.4-0.7c-4.3-5-5-5.8-10.9-16.2c-3.9-6.8-6.6-17-9-26c-1.3-4.8-2.5-9.3-3.7-13c-3.5-10.3-7.8-43.1-7-50.2
		c0.5-4.7,7.3-17.8,11.8-26.5c1.6-2.9,3.1-6,4.4-9.1c1.6-5.1,1.7-10.7,0.3-18.8c-0.1-0.5-0.4-0.9-0.8-1.2
		c-5.5-3.3-13.7-9.2-15.1-11.2c-0.3-0.5-1.3-1.8-1.1-5.8c0.1-2.9,4.4-20.6,6.9-26.2C159,88.6,170.5,81.6,173.7,81.6 M157.5,89.9
		L157.5,89.9 M173.7,79.9c-4.1,0-17.4,8.4-17.8,9.3c-2.6,5.7-7,23.9-7.1,27.1c-0.2,4.3,0.9,6.1,1.4,6.8c1.7,2.4,10.4,8.5,15.7,11.7
		c1.5,8.6,1.1,13.6-0.3,17.9c-1.1,3.5-15.4,28.5-16.2,35.9s3.4,40.2,7.1,51s6.8,28.8,12.8,39.3s6.7,11.4,11.1,16.5
		c3.1,12.5,16.8,39.1,19.1,43.5c-0.5,3.5-1.3,6.9-2.3,10.3c-1.1,4-2.4,7.8-3.4,9.4c-0.6,0.1-1.1,0.2-1.7,0.2c-3.8,0-9-2.2-11.8-2.2
		h-0.4c-3.1,1.2-5.5,3.7-6.6,6.8c1.7,0.4,3.4,0.6,5.1,0.5c6.6,0,17.1-1.2,21.1-1.5c1.7-2.1,5.2-9.2,8-15.8c1.6-3.5,2.9-7.1,3.9-10.8
		c-1-3.4-4.3-6.1-4.3-9.8s8.8-15.2,10.5-19.2c3.1,10.8,12.1,31.1,17.1,39c6.6,10.4,9.3,14.4,22.5,16.2c6,0.8,12.1,1.3,18.2,1.3
		c8.2,0,16.6-1,21-4.2c-8.8-0.1-18.5-0.5-27.3-1.4c-13-1.4-18.1-1.1-25.6-17.8c-5.3-10.8-11.3-29.1-18.1-47.3
		c-6.9-18.6-13.5-32.3-20.2-46.6c0.4-12.4,7.8-55,7.3-61.8s-8.6-24.8-12-31.3c-0.3-6.9,0.3-9.8,1.1-16.8c5.6-3.6,12.2-7.7,15.7-9.4
		c1.4-0.7,3.4-2.1,3.4-4c0.2-7.1-5.1-29.5-5.7-31.3c-0.4-1.2-12.2-11-16.2-11.5c-0.7-0.1-1.3-0.1-2-0.1c-4.4,0-6.8,2-11.6,3.2
		C180.8,81.6,180.6,80.1,173.7,79.9L173.7,79.9z"/>
	<path class="st6" d="M179.8,293.4c-1.2-7.5-1.6-24.6,1.4-35.8c1.4-5.1,0-31.1,2.7-48.2c3.2-20.4-11.5-19.6-11.4-33.7
		c0-6.4,7.4-9.6,9.6-13.6c5.1-9.1,9.9-14.5,10.7-27.2c4.8-4.2,14.9-6.3,14.9-15c0-6.1-5.7-7.9-6.5-9.7c2.2-2,6.2-5.5,7.7-8.5
		c2.6-5.2,1.2-11.5-3.4-15c-3.4-2.5-7-2.9-11.2-2.2c-3.6,0.6-7,3.8-9.6,6.1c-0.8,0.7-2,0.6-2.7-0.1c0,0-0.1-0.1-0.1-0.1
		c-1.8-2.4-3-5.6-6.6-6.3c-3.4-0.7-10.2,1.8-13.1,4.8c-3.3,3.3-4.8,8-3.9,12.6c0.8,3.5,4.5,6,5.9,9.3c-1.8,2.1-7,4.8-6.6,10
		c0.6,6.3,8.4,10.3,9.6,13.5s-0.5,18.6-0.5,18.6l-17,35.7c0,0,6.5,63.7,19.9,90.2C176.6,290.5,176.1,290,179.8,293.4z"/>
	<path class="st3" d="M234.8,345.9c6.6,10.4,9.3,14.4,22.5,16.2c9.8,1.4,31.1,3,39.3-2.9c-8.8-0.1-18.5-0.5-27.3-1.4
		c-13-1.4-18.1-1.1-25.6-17.8L234.8,345.9z"/>
	<path class="st3" d="M179.8,356.7c3.1-0.3,10,3,14,2c1-1.6,2.2-5.3,3.4-9.4c2.5,1.7,5.6,0.8,10.3-2.6c-1.8,4.1-5.4,12.6-8,15.8
		c-5.5,0.4-22.4,2.5-26.2,1C174.4,360.4,176.8,357.9,179.8,356.7z"/>
	<path class="st7" d="M173.7,81.6L173.7,81.6c4.2,0.2,5.6,0.8,7.4,1.7c1.2,0.6,2.4,1.1,3.7,1.5c0.3,0.1,0.6,0.1,0.9,0
		c1.7-0.4,3.4-1,5-1.7c2-0.9,4.1-1.4,6.3-1.5c0.6,0,1.2,0,1.8,0.1c3.1,0.4,13.4,8.6,14.9,10.5c0.7,2.7,5.8,23.9,5.6,30.6
		c0,0.9-1.3,1.9-2.5,2.5c-4.2,2.1-12.5,7.3-15.8,9.5c-0.4,0.3-0.7,0.7-0.8,1.2c-0.1,1.1-0.2,2-0.4,2.9c-0.7,4.7-1,9.4-0.8,14.2
		c0,0.3,0.1,0.5,0.2,0.7c3.7,7.1,11.2,24.4,11.8,30.7c0.3,3.4-1.6,16.9-3.4,29.9c-1.8,12.6-3.6,25.6-3.8,31.7c0,0.3,0,0.5,0.2,0.8
		l1.5,3.2c6.1,12.8,12.3,26.1,18.7,43.2c1.9,5,3.7,10.1,5.4,15c4.6,12.6,8.9,24.6,12.7,32.5c7.6,16.7,13.4,17.3,25.1,18.6l1.9,0.2
		c6.2,0.7,12.8,1,18.7,1.2c-4,0.7-8.1,1-12.2,1c-6,0-12-0.5-18-1.3c-12.7-1.8-15-5.5-21.3-15.5c-5.1-8-13.9-28.2-16.9-38.6
		c-0.2-0.7-0.8-1.2-1.5-1.2h-0.1c-0.7,0-1.3,0.4-1.6,1c-1.2,2.3-2.5,4.5-3.9,6.6c-4.1,6.3-6.7,10.7-6.7,13.3s1.4,4.9,2.5,6.8
		c0.7,1,1.2,2,1.7,3.1c-1.1,3.4-2.3,6.8-3.8,10c-2.1,5.1-4.5,10.1-7.3,14.9c-0.9,0.1-1.9,0.2-3.1,0.3c-4.8,0.5-12.1,1.1-17.1,1.1
		c-1.1,0-2,0-2.7-0.1c1.1-1.7,2.6-3,4.4-3.9h0.1c1.6,0.1,3.1,0.4,4.6,0.9c2.3,0.7,4.7,1.1,7.2,1.3c0.7,0,1.4-0.1,2.1-0.2
		c0.4-0.1,0.8-0.4,1.1-0.8c1.3-2.2,2.8-7.1,3.6-9.8c1-3.5,1.8-7,2.4-10.6c0-0.3,0-0.7-0.2-1c-3.7-7.2-16-31.5-18.9-43.2
		c-0.1-0.3-0.2-0.5-0.4-0.7c-4.3-5-5-5.8-10.9-16.2c-3.9-6.8-6.6-17-9-26c-1.3-4.8-2.5-9.3-3.7-13c-3.5-10.3-7.8-43.1-7-50.2
		c0.5-4.7,7.3-17.8,11.8-26.5c1.6-2.9,3.1-6,4.4-9.1c1.6-5.1,1.7-10.7,0.3-18.8c-0.1-0.5-0.4-0.9-0.8-1.2
		c-5.5-3.3-13.7-9.2-15.1-11.2c-0.3-0.5-1.3-1.8-1.1-5.8c0.1-2.9,4.4-20.6,6.9-26.2C159,88.6,170.5,81.6,173.7,81.6 M157.5,89.9
		L157.5,89.9 M173.7,79.9c-4.1,0-17.4,8.4-17.8,9.3c-2.6,5.7-7,23.9-7.1,27.1c-0.2,4.3,0.9,6.1,1.4,6.8c1.7,2.4,10.4,8.5,15.7,11.7
		c1.5,8.6,1.1,13.6-0.3,17.9c-1.1,3.5-15.4,28.5-16.2,35.9s3.4,40.2,7.1,51s6.8,28.8,12.8,39.3s6.7,11.4,11.1,16.5
		c3.1,12.5,16.8,39.1,19.1,43.5c-0.5,3.5-1.3,6.9-2.3,10.3c-1.1,4-2.4,7.8-3.4,9.4c-0.6,0.1-1.1,0.2-1.7,0.2c-3.8,0-9-2.2-11.8-2.2
		h-0.4c-3.1,1.2-5.5,3.7-6.6,6.8c1.7,0.4,3.4,0.6,5.1,0.5c6.6,0,17.1-1.2,21.1-1.5c1.7-2.1,5.2-9.2,8-15.8c1.6-3.5,2.9-7.1,3.9-10.8
		c-1-3.4-4.3-6.1-4.3-9.8s8.8-15.2,10.5-19.2c3.1,10.8,12.1,31.1,17.1,39c6.6,10.4,9.3,14.4,22.5,16.2c6,0.8,12.1,1.3,18.2,1.3
		c8.2,0,16.6-1,21-4.2c-8.8-0.1-18.5-0.5-27.3-1.4c-13-1.4-18.1-1.1-25.6-17.8c-5.3-10.8-11.3-29.1-18.1-47.3
		c-6.9-18.6-13.5-32.3-20.2-46.6c0.4-12.4,7.8-55,7.3-61.8s-8.6-24.8-12-31.3c-0.3-6.9,0.3-9.8,1.1-16.8c5.6-3.6,12.2-7.7,15.7-9.4
		c1.4-0.7,3.4-2.1,3.4-4c0.2-7.1-5.1-29.5-5.7-31.3c-0.4-1.2-12.2-11-16.2-11.5c-0.7-0.1-1.3-0.1-2-0.1c-4.4,0-6.8,2-11.6,3.2
		C180.8,81.6,180.6,80.1,173.7,79.9L173.7,79.9z"/>
</g>
<g id="Hand-2">
	<path class="st10" d="M208.9,187.2c2.8-0.7,8.5-1.2,9.7-3.8s8.9-36.9,12.3-40.4s5.6-4.2,8.2-2c2.5,2,14,0.8,16.3,0.3
		c3.2-0.6,3.7-3.1,2.2-3.8c-3.4-1.5-9.3-2-9.3-2c-4.6-0.7-12.9-2.1-20-0.3c-6.6,2.4-12.3,17.3-17.5,20.9s-9.9,3.9-14.5,4.1
		s-10,3.6-12.6,4.6"/>
	<path class="st3" d="M233.9,140.4c1.9-1.2,3.4-1,5.3,0.5c2.5,2,14,0.8,16.3,0.3c3.2-0.6,3.7-3.1,2.2-3.8c-3.4-1.5-9.3-2-9.3-2
		c-4.6-0.7-12.9-2.1-20-0.3"/>
	<path class="st11" d="M208.9,187.2c2.8-0.7,8.5-1.2,9.7-3.8s8.9-36.9,12.3-40.4s5.6-4.2,8.2-2c2.5,2,14,0.8,16.3,0.3
		c3.2-0.6,3.7-3.1,2.2-3.8c-3.4-1.5-9.3-2-9.3-2c-4.6-0.7-12.9-2.1-20-0.3c-6.6,2.4-12.3,17.3-17.5,20.9s-9.9,3.9-14.5,4.1
		s-10,3.6-12.6,4.6"/>
</g>
<g id="face-3">
	<path class="st7" d="M197.4,107.8c-1.1-4.3-7.5-10.2-10.6-12c0.5-4.8,4.6-8.1,7.7-9s8.4-0.2,11.1,3.4s3.3,7.1,0.7,11.8
		C206.3,102.1,201.5,108.6,197.4,107.8z"/>
	<circle class="st6" cx="197.4" cy="95.6" r="3.5"/>
	<circle class="st7" cx="197.2" cy="95.8" r="1.2"/>
	<path class="st7" d="M176.6,96.2c0.7-3.6,0.6-8.8-1.4-9.8c-3.4-1.6-10,1.2-12.9,5.5c-2.3,3.2-2.5,7.5-0.6,11
		c1.4,2.2,3.6,4.2,5.5,3.3C168.1,101.8,175,96.7,176.6,96.2z"/>
	<circle class="st6" cx="169.1" cy="94" r="3.2"/>
	<circle class="st7" cx="169.2" cy="94.1" r="1.2"/>
	<path class="st3" d="M192.4,117.5c1.8-3.3-2.6-12.8-5.1-15.3s-5.8-4.3-10.2-2.3c-3.3,1.4-6.3,6.8-6.6,10.3s-0.3,5.3,2.4,6.8
		C174.6,118,191.2,119.8,192.4,117.5z"/>
	<path class="st7" d="M185.6,104.8c-0.1-2.4-7.6-4.6-10.2-1.4c-0.9,1.1,2,5.3,4.5,5.4S185.6,106.3,185.6,104.8z"/>
	<path class="st7" d="M190,117.9c-0.2-1.9-14.2-4.2-15.9-3.3c-0.8,0.3-1.3,1.2-1.1,2.1c0.1,0.5,0.8,8,6.4,7.8S190.3,120.9,190,117.9
		z"/>
	<path class="st7" d="M230.1,118.2c-2-0.2-3.9-1-5.3-2.4c-2.7-2.3-7-9.2-7.1-9.5l-0.1-0.1l-2.9-13.2l1.5,0.5
		c0.6,0.2,15.1,5.6,21.8,9.4l0.5,0.3l-0.1,0.6c-0.8,5.8-3.7,12.2-5.6,13.7C232,117.9,231.1,118.2,230.1,118.2z"/>
	<path class="st7" d="M215.9,94.3c0,0,15,5.5,21.7,9.3c-0.8,5.5-3.6,11.8-5.3,13.1c-0.6,0.5-1.3,0.7-2.1,0.7c-1.8-0.2-3.5-1-4.7-2.2
		c-2.7-2.3-7-9.3-7-9.3L215.9,94.3 M213.5,91.6l0.7,3l2.6,11.6l0.1,0.3l0.1,0.2c0.2,0.3,4.5,7.3,7.3,9.7c1.6,1.5,3.7,2.5,5.9,2.6
		c1.1,0,2.2-0.4,3.1-1.1c2.3-1.8,5.2-8.7,6-14.2l0.2-1.1l-1-0.6c-6.8-3.8-21.3-9.2-22-9.4L213.5,91.6L213.5,91.6z"/>
</g>
<g id="leg-2">
	<path class="st5" d="M336.1,414.2c-6.8,0-11.9-0.1-13.8-0.4c-3-3.8-11.7-24.9-13.3-30.4c-0.2-2.3,1.1-5.4,2.5-8.9
		c1.8-4.2,4-9.3,4.5-15.5c0.9-10.3,1.9-29.9,2-33.1l22.8-22.9c2.1,5.9,8.9,26.6,7,41.2c-2.6,5.3-9.3,12.8-15.7,20
		c-6.9,7.6-13.4,14.9-14.9,19.5c0,0.2,0,0.4,0,0.5c1.5,9.2,7,18.8,8.8,21.4c1.4,2.3,3.9,3.7,6.6,3.8c0.4,0,0.7,0,1.1-0.1
		c2.1-0.4,4.3-1,6.3-1.7c2.8-1,5.7-1.6,8.7-1.9c2.3,2.2,4,4.9,5.1,7.8C350.7,414,343.6,414.2,336.1,414.2z"/>
	<path class="st7" d="M340.4,305.2c2.5,7.4,8,25.6,6.4,38.8c-2.5,5.1-9.1,12.5-15.5,19.5c-7,7.7-13.5,15-15.2,19.9
		c-0.1,0.4-0.2,0.7-0.1,1.1c1.5,9.4,7.1,19.2,9,21.9c1.6,2.6,4.4,4.2,7.5,4.3c0.4,0,0.8,0,1.3-0.1c2.2-0.4,4.3-1,6.5-1.7
		c2.6-0.9,5.2-1.5,7.9-1.8c1.6,1.6,2.9,3.6,3.9,5.6c-3.2,0.2-9.1,0.3-15.9,0.3c-7.2,0-11.4-0.1-13.1-0.3
		c-2.9-4.3-11.1-23.7-12.8-29.5c-0.2-2,1.1-4.9,2.5-8.2c1.8-4.2,4-9.5,4.6-15.8c0.9-10,1.8-28.5,2-32.7L340.4,305.2 M341.4,301
		L317,325.5c0,0-1,22.1-2,33.5s-7.7,19-7,24.7c1.6,5.6,11,28.1,13.8,31.2c4.8,0.4,9.6,0.5,14.3,0.5c8.2,0,17.2-0.2,18.9-0.6
		c-0.2-2.3-2.7-7.1-6-10c-5,0-10.6,2.7-15.6,3.6c-0.3,0.1-0.6,0.1-0.9,0.1c-2.3-0.1-4.4-1.4-5.6-3.3c-1.7-2.5-7.2-12-8.6-21
		c3-8.8,25.5-28.5,30.7-39.5C351.4,326.9,341.4,301,341.4,301L341.4,301z"/>
	<path class="st3" d="M321.6,395.1c1.5,3.5,3.3,6.8,5.3,10.1c1.8,2.6,4.3,3.6,6.5,3.2c5-0.9,10.5-3.6,15.6-3.6c3.3,2.8,5.8,7.7,6,10
		c-3.1,0.6-29.5,0.8-33.2,0.1c-1.6-1.8-5.4-9.9-8.6-17.6C313.2,397.3,320.3,397.1,321.6,395.1z"/>
	<path class="st7" d="M340.4,305.2c2.5,7.4,8,25.6,6.4,38.8c-2.5,5.1-9.1,12.5-15.5,19.5c-7,7.7-13.5,15-15.2,19.9
		c-0.1,0.4-0.2,0.7-0.1,1.1c1.5,9.4,7.1,19.2,9,21.9c1.6,2.6,4.4,4.2,7.5,4.3c0.4,0,0.8,0,1.3-0.1c2.2-0.4,4.3-1,6.5-1.7
		c2.6-0.9,5.2-1.5,7.9-1.8c1.6,1.6,2.9,3.6,3.9,5.6c-3.2,0.2-9.1,0.3-15.9,0.3c-7.2,0-11.4-0.1-13.1-0.3
		c-2.9-4.3-11.1-23.7-12.8-29.5c-0.2-2,1.1-4.9,2.5-8.2c1.8-4.2,4-9.5,4.6-15.8c0.9-10,1.8-28.5,2-32.7L340.4,305.2 M341.4,301
		L317,325.5c0,0-1,22.1-2,33.5s-7.7,19-7,24.7c1.6,5.6,11,28.1,13.8,31.2c4.8,0.4,9.6,0.5,14.3,0.5c8.2,0,17.2-0.2,18.9-0.6
		c-0.2-2.3-2.7-7.1-6-10c-5,0-10.6,2.7-15.6,3.6c-0.3,0.1-0.6,0.1-0.9,0.1c-2.3-0.1-4.4-1.4-5.6-3.3c-1.7-2.5-7.2-12-8.6-21
		c3-8.8,25.5-28.5,30.7-39.5C351.4,326.9,341.4,301,341.4,301L341.4,301z"/>
</g>
<path class="st7" d="M368,102.5c-2.2-0.1-4.2-0.9-5.9-2.3l-0.3-0.2l-0.1-0.4c-1.1-5.1-6.6-25.8-6.7-26l-0.7-2.5l2.3,1.2
	c4,2,23.8,12.5,24.9,17.1v0.1v0.1c0.1,5.3-5.9,10.5-9.3,11.9C370.9,102.2,369.5,102.5,368,102.5z"/>
<path class="st7" d="M356.1,73.2c0,0,23.3,12.1,24.3,16.4c0.1,4.8-5.5,9.6-8.5,10.8c-1.2,0.6-2.6,0.9-3.9,0.9
	c-1.9-0.1-3.7-0.8-5.2-2C361.7,94.2,356.1,73.3,356.1,73.2 M352.6,68.9l1.3,5c0,0.2,5.6,20.9,6.7,26l0.2,0.8l0.7,0.5
	c1.8,1.6,4.1,2.4,6.5,2.5c1.6-0.1,3.3-0.4,4.8-1.1c3.4-1.4,10.1-6.9,10-13v-0.2v-0.2c-0.4-1.8-2.4-4.5-13.6-11.2
	c-6-3.6-11.9-6.6-11.9-6.6l-4.6-2.4L352.6,68.9z"/>
<g id="Hand-3">
	<path class="st12" d="M316.2,163.8c0-3.8-1.2-11.3,1.8-13.8s44.6-23.4,48-28.9c3.5-5.7,3.6-8.6-0.1-11.3
		c-3.4-2.5-5.5-17.7-5.7-20.8c-0.3-4.3,2.8-5.8,4.1-4.1c3,3.8,5.5,11.3,5.5,11.3c2.4,5.7,6.9,15.9,6.9,25.6
		c-0.9,9.3-18.3,21.4-21.2,29.2s-1.7,14-0.6,19.9s-1.4,14-1.8,17.6"/>
	<path class="st3" d="M368.3,116.5c0.9-2.8,0.1-4.8-2.4-6.6c-3.4-2.5-5.5-17.7-5.7-20.8c-0.3-4.3,2.8-5.8,4.1-4.1
		c3,3.8,5.5,11.3,5.5,11.3c2.4,5.7,6.9,15.9,6.9,25.6"/>
	<path class="st13" d="M316.2,163.8c0-3.8-1.2-11.3,1.8-13.8s44.6-23.4,48-28.9c3.5-5.7,3.6-8.6-0.1-11.3
		c-3.4-2.5-5.5-17.7-5.7-20.8c-0.3-4.3,2.8-5.8,4.1-4.1c3,3.8,5.5,11.3,5.5,11.3c2.4,5.7,6.9,15.9,6.9,25.6
		c-0.9,9.3-18.3,21.4-21.2,29.2s-1.7,14-0.6,19.9s-1.4,14-1.8,17.6"/>
</g>
<g id="body-4">
	<path class="st5" d="M324.2,430.8c-6.6,0-16.3-0.9-22.7-1.5c-1.8-0.2-3.4-0.3-4.7-0.4c-2.1-2.9-6.3-11.4-10.1-20.3
		c-2-4.5-3.7-9.1-5.1-13.9c0.6-1.6,1.4-3.2,2.4-4.6c1.6-2.5,3.2-5.1,3.2-8.4s-3.6-9.1-8.8-17c-2-2.8-3.7-5.8-5.3-8.9
		c-0.2-0.4-0.6-0.7-1-0.7H272c-0.5,0-0.9,0.4-1,0.8c-4,13.8-15.8,40.8-22.5,51.4c-8.3,13.1-11.7,18.5-29,21c-8,1.1-16,1.7-24,1.7
		c-10.2,0-18.2-1.1-23.6-3.3c9.2-0.2,21.2-0.6,32-1.8l2.5-0.3c15.5-1.6,22.6-2.4,32.4-24c5.1-10.4,10.8-26.2,16.8-42.9
		c2.3-6.5,4.8-13.2,7.2-19.8c8.5-22.7,16.7-40.3,24.8-57.4l2-4.3c0.1-0.2,0.1-0.3,0.1-0.5c-0.3-8-2.7-25.2-5-41.9
		c-2.4-17.4-5-35.4-4.6-39.9c0.7-8.4,10.8-31.6,15.7-41.1c0.1-0.1,0.1-0.3,0.1-0.5c0.3-6.2,0-12.5-1-18.6c-0.1-1.2-0.3-2.5-0.5-3.9
		c0-0.3-0.2-0.6-0.5-0.8c-4.4-2.8-15.4-9.8-20.9-12.5c-1.9-0.9-3.9-2.5-3.9-4.3c-0.3-9.2,6.7-38.5,7.5-41.1
		c1.1-1.8,16-13.9,20.6-14.5c0.8-0.1,1.6-0.2,2.5-0.2c3.3,0,5.8,1,8.6,2.1c2.1,0.9,4.3,1.6,6.5,2.1c0.1,0,0.2,0,0.3,0
		c0.1,0,0.2,0,0.3-0.1c1.6-0.5,3.1-1.2,4.6-1.9c2.5-1.2,4.4-2.1,10.3-2.3l0,0c4.9,0,21.3,10.2,22.8,11.8c3.4,7.5,9.1,31.3,9.3,35.4
		c0.3,5.6-1.2,7.7-1.7,8.3c-2,2.8-12.9,10.7-20.4,15.2c-0.3,0.2-0.5,0.5-0.5,0.8c-1.8,10.5-1.6,17.8,0.4,24.3
		c0.5,1.6,2.7,5.9,5.8,11.8c6,11.6,15,29.1,15.7,35.5c1.1,9.8-4.5,52.9-9.4,67.1c-1.7,4.9-3.2,10.8-4.9,17.1
		c-3.2,12-6.8,25.7-12,34.8c-7.9,14-8.8,15-14.6,21.7c-0.1,0.1-0.2,0.3-0.2,0.5c-3.9,15.6-20.3,48-25.2,57.5
		c-0.1,0.2-0.2,0.4-0.1,0.6c0.7,4.7,1.7,9.3,3.1,13.8c0.8,2.9,2.9,9.8,4.6,12.7c0.2,0.3,0.4,0.4,0.7,0.5c0.8,0.2,1.7,0.3,2.6,0.3
		c3.1-0.2,6.2-0.7,9.2-1.7c2.1-0.6,4.2-1.1,6.4-1.3h0.3c3.3,1.4,5.9,3.9,7.4,7.2C327.7,430.7,326,430.8,324.2,430.8z"/>
	<path class="st7" d="M330.4,57.5c4.3,0,19.5,9.3,21.7,11.3c3.3,7.4,8.9,30.9,9.1,34.8c0.3,5.2-1,7-1.5,7.7
		c-1.9,2.7-12.8,10.5-20.1,14.8c-0.6,0.3-1,0.9-1.1,1.6c-1.8,10.7-1.7,18.2,0.5,24.8c0.5,1.6,2.4,5.2,5.9,12
		c5.9,11.5,14.9,28.9,15.6,35.1c1,9.5-4.6,52.9-9.3,66.6c-1.7,4.9-3.3,10.9-4.9,17.2c-3.2,12-6.8,25.5-11.9,34.5
		c-7.9,13.9-8.8,14.9-14.5,21.5c-0.2,0.3-0.4,0.6-0.5,0.9c-3.9,15.5-20.2,47.8-25.1,57.3c-0.2,0.4-0.3,0.8-0.2,1.3
		c0.7,4.7,1.8,9.4,3.1,14c1,3.6,3,10.1,4.8,13c0.3,0.5,0.8,0.9,1.4,1c0.9,0.2,1.9,0.3,2.8,0.3c3.2-0.2,6.4-0.7,9.5-1.7
		c2-0.6,4.1-1,6.1-1.2h0.1c2.4,1.1,4.5,2.9,5.9,5.1c-0.9,0.1-2,0.1-3.6,0.1c-6.6,0-16.2-0.9-22.6-1.5l-4.1-0.4
		c-2.1-3.1-6.1-11.2-9.7-19.7c-1.9-4.3-3.6-8.8-5-13.4c0.6-1.4,1.3-2.8,2.2-4.1c1.6-2.5,3.4-5.4,3.4-9s-3.5-9.2-8.9-17.7
		c-1.9-2.8-3.7-5.7-5.2-8.7c-0.4-0.8-1.2-1.4-2.1-1.4h0c-0.9,0.1-1.7,0.7-2,1.6c-4,13.8-15.7,40.5-22.4,51.1
		c-8.3,13.2-11.4,18.1-28.2,20.5c-7.9,1.1-15.9,1.7-23.9,1.7c-5.4,0.1-10.8-0.4-16.2-1.3c7.8-0.3,16.6-0.7,24.8-1.6l2.5-0.3
		c15.5-1.6,23.3-2.5,33.3-24.6c5.1-10.5,10.8-26.3,16.8-43c2.3-6.5,4.7-13.2,7.2-19.8c8.4-22.7,16.7-40.3,24.7-57.3l2-4.2
		c0.2-0.3,0.2-0.7,0.2-1c-0.3-8-2.7-25.3-5.1-42c-2.4-17.3-5-35.2-4.6-39.7c0.7-8.3,10.7-31.2,15.6-40.7c0.2-0.3,0.2-0.6,0.3-0.9
		c0.3-6.3-0.1-12.6-1.1-18.8c-0.1-1.2-0.3-2.4-0.5-3.8c-0.1-0.7-0.4-1.3-1-1.6c-4.5-2.9-15.4-9.8-21-12.6c-1.5-0.8-3.2-2.2-3.3-3.3
		c-0.3-8.9,6.4-37,7.4-40.6c1.9-2.5,15.7-13.4,19.7-13.9c0.8-0.1,1.5-0.1,2.3-0.2c3.1,0,5.4,0.9,8.2,2c2.1,0.9,4.3,1.6,6.6,2.2
		c0.2,0,0.4,0.1,0.5,0.1c0.2,0,0.5,0,0.7-0.1c1.7-0.5,3.3-1.2,4.9-1.9C323,58.6,324.7,57.8,330.4,57.5L330.4,57.5 M277.6,71.3
		L277.6,71.3 M330.4,55.3h-0.1c-9.1,0.3-9.3,2.3-15.3,4.2c-6.3-1.5-9.5-4.2-15.3-4.2c-0.9,0-1.7,0.1-2.6,0.2
		c-5.3,0.7-21,13.6-21.5,15.2c-0.8,2.5-7.9,32.1-7.6,41.5c0.1,2.4,2.6,4.3,4.5,5.3c4.5,2.3,13.4,7.7,20.8,12.5
		c1.1,9.2,1.9,13.2,1.5,22.3c-4.5,8.7-15.1,32.5-15.9,41.5s9.1,65.5,9.6,81.9c-8.9,18.9-17.7,37.1-26.8,61.7
		c-8.9,24.1-17,48.3-24,62.7c-10,22.1-16.8,21.7-34,23.6c-11.7,1.3-24.5,1.7-36.2,1.9c5.9,4.2,17,5.5,27.9,5.5
		c8.1,0,16.2-0.6,24.2-1.8c17.5-2.5,21.1-7.7,29.8-21.5c6.6-10.5,18.5-37.4,22.7-51.7c2.3,5.3,14,20.6,14,25.5s-4.4,8.5-5.7,13
		c1.4,4.9,3.2,9.7,5.2,14.3c3.7,8.8,8.4,18.2,10.6,21c5.4,0.4,19.2,2,28,2c2.3,0.1,4.6-0.1,6.8-0.7c-1.4-4.1-4.6-7.4-8.7-9.1h-0.5
		c-3.8,0-10.6,2.9-15.7,2.9c-0.8,0-1.5-0.1-2.3-0.2c-1.3-2.1-3-7.2-4.5-12.4c-1.3-4.5-2.3-9-3-13.6c3-5.9,21.1-41.1,25.3-57.8
		c5.9-6.8,6.8-7.9,14.7-21.9s12.1-37.8,17-52.1s10.5-57.8,9.4-67.6s-20.1-43-21.5-47.6c-1.8-5.7-2.3-12.3-0.4-23.8
		c7-4.2,18.5-12.3,20.8-15.5c0.7-1,2.2-3.3,1.9-9.1c-0.2-4.2-5.9-28.3-9.4-35.9C353.4,66.4,335.8,55.3,330.4,55.3L330.4,55.3z"/>
	<path class="st6" d="M322.3,338.4c1.6-9.9,2.1-32.6-1.8-47.5c-1.8-6.7,0-41.2-3.6-63.9c-4.3-27.1,15.2-26.1,15.1-44.6
		c0-8.4-9.8-12.7-12.7-18c-6.7-12.1-13.1-19.2-14.2-36.1c-6.4-5.6-19.7-8.3-19.7-19.8c0-8.1,7.5-10.5,8.6-12.8
		c-2.9-2.6-8.2-7.2-10.2-11.3c-2.7-5.6-2.6-14.4,4.5-19.8c4.5-3.3,9.2-3.8,14.9-3c4.8,0.8,9.3,5.1,12.7,8.1c1,0.9,2.7,0.9,3.6-0.2
		c0.1-0.1,0.1-0.1,0.1-0.2c2.4-3.2,4-7.4,8.8-8.4c4.5-0.9,13.5,2.4,17.4,6.4c4.5,4.7,6.4,11.2,5.2,16.7c-1,4.6-6,8-7.8,12.4
		c2.4,2.7,9.3,6.4,8.7,13.2c-0.8,8.4-11.1,13.7-12.6,17.8c-1.5,4.2,0.7,24.6,0.7,24.6l22.6,47.4c0,0-8.6,84.5-26.3,119.7
		C326.5,334.4,327.2,333.8,322.3,338.4z"/>
	<path class="st3" d="M249.4,407.8c-8.7,13.8-12.3,19-29.8,21.5c-13,1.9-41.2,4-52.1-3.8c11.7-0.2,24.6-0.6,36.2-1.9
		c17.2-1.9,24-1.5,34-23.6L249.4,407.8z"/>
	<path class="st3" d="M322.3,422.2c-4.2-0.4-13.2,4-18.5,2.6c-1.3-2.1-2.9-7-4.5-12.4c-3.3,2.2-7.5,1.1-13.7-3.5
		c2.4,5.5,7.2,16.6,10.6,21c7.2,0.6,29.7,3.2,34.8,1.3C329.6,427.1,326.4,423.8,322.3,422.2z"/>
	<path class="st7" d="M330.4,57.5c4.3,0,19.5,9.3,21.7,11.3c3.3,7.4,8.9,30.9,9.1,34.8c0.3,5.2-1,7-1.5,7.7
		c-1.9,2.7-12.8,10.5-20.1,14.8c-0.6,0.3-1,0.9-1.1,1.6c-1.8,10.7-1.7,18.2,0.5,24.8c0.5,1.6,2.4,5.2,5.9,12
		c5.9,11.5,14.9,28.9,15.6,35.1c1,9.5-4.6,52.9-9.3,66.6c-1.7,4.9-3.3,10.9-4.9,17.2c-3.2,12-6.8,25.5-11.9,34.5
		c-7.9,13.9-8.8,14.9-14.5,21.5c-0.2,0.3-0.4,0.6-0.5,0.9c-3.9,15.5-20.2,47.8-25.1,57.3c-0.2,0.4-0.3,0.8-0.2,1.3
		c0.7,4.7,1.8,9.4,3.1,14c1,3.6,3,10.1,4.8,13c0.3,0.5,0.8,0.9,1.4,1c0.9,0.2,1.9,0.3,2.8,0.3c3.2-0.2,6.4-0.7,9.5-1.7
		c2-0.6,4.1-1,6.1-1.2h0.1c2.4,1.1,4.5,2.9,5.9,5.1c-0.9,0.1-2,0.1-3.6,0.1c-6.6,0-16.2-0.9-22.6-1.5l-4.1-0.4
		c-2.1-3.1-6.1-11.2-9.7-19.7c-1.9-4.3-3.6-8.8-5-13.4c0.6-1.4,1.3-2.8,2.2-4.1c1.6-2.5,3.4-5.4,3.4-9s-3.5-9.2-8.9-17.7
		c-1.9-2.8-3.7-5.7-5.2-8.7c-0.4-0.8-1.2-1.4-2.1-1.4h0c-0.9,0.1-1.7,0.7-2,1.6c-4,13.8-15.7,40.5-22.4,51.1
		c-8.3,13.2-11.4,18.1-28.2,20.5c-7.9,1.1-15.9,1.7-23.9,1.7c-5.4,0.1-10.8-0.4-16.2-1.3c7.8-0.3,16.6-0.7,24.8-1.6l2.5-0.3
		c15.5-1.6,23.3-2.5,33.3-24.6c5.1-10.5,10.8-26.3,16.8-43c2.3-6.5,4.7-13.2,7.2-19.8c8.4-22.7,16.7-40.3,24.7-57.3l2-4.2
		c0.2-0.3,0.2-0.7,0.2-1c-0.3-8-2.7-25.3-5.1-42c-2.4-17.3-5-35.2-4.6-39.7c0.7-8.3,10.7-31.2,15.6-40.7c0.2-0.3,0.2-0.6,0.3-0.9
		c0.3-6.3-0.1-12.6-1.1-18.8c-0.1-1.2-0.3-2.4-0.5-3.8c-0.1-0.7-0.4-1.3-1-1.6c-4.5-2.9-15.4-9.8-21-12.6c-1.5-0.8-3.2-2.2-3.3-3.3
		c-0.3-8.9,6.4-37,7.4-40.6c1.9-2.5,15.7-13.4,19.7-13.9c0.8-0.1,1.5-0.1,2.3-0.2c3.1,0,5.4,0.9,8.2,2c2.1,0.9,4.3,1.6,6.6,2.2
		c0.2,0,0.4,0.1,0.5,0.1c0.2,0,0.5,0,0.7-0.1c1.7-0.5,3.3-1.2,4.9-1.9C323,58.6,324.7,57.8,330.4,57.5L330.4,57.5 M277.6,71.3
		L277.6,71.3 M330.4,55.3h-0.1c-9.1,0.3-9.3,2.3-15.3,4.2c-6.3-1.5-9.5-4.2-15.3-4.2c-0.9,0-1.7,0.1-2.6,0.2
		c-5.3,0.7-21,13.6-21.5,15.2c-0.8,2.5-7.9,32.1-7.6,41.5c0.1,2.4,2.6,4.3,4.5,5.3c4.5,2.3,13.4,7.7,20.8,12.5
		c1.1,9.2,1.9,13.2,1.5,22.3c-4.5,8.7-15.1,32.5-15.9,41.5s9.1,65.5,9.6,81.9c-8.9,18.9-17.7,37.1-26.8,61.7
		c-8.9,24.1-17,48.3-24,62.7c-10,22.1-16.8,21.7-34,23.6c-11.7,1.3-24.5,1.7-36.2,1.9c5.9,4.2,17,5.5,27.9,5.5
		c8.1,0,16.2-0.6,24.2-1.8c17.5-2.5,21.1-7.7,29.8-21.5c6.6-10.5,18.5-37.4,22.7-51.7c2.3,5.3,14,20.6,14,25.5s-4.4,8.5-5.7,13
		c1.4,4.9,3.2,9.7,5.2,14.3c3.7,8.8,8.4,18.2,10.6,21c5.4,0.4,19.2,2,28,2c2.3,0.1,4.6-0.1,6.8-0.7c-1.4-4.1-4.6-7.4-8.7-9.1h-0.5
		c-3.8,0-10.6,2.9-15.7,2.9c-0.8,0-1.5-0.1-2.3-0.2c-1.3-2.1-3-7.2-4.5-12.4c-1.3-4.5-2.3-9-3-13.6c3-5.9,21.1-41.1,25.3-57.8
		c5.9-6.8,6.8-7.9,14.7-21.9s12.1-37.8,17-52.1s10.5-57.8,9.4-67.6s-20.1-43-21.5-47.6c-1.8-5.7-2.3-12.3-0.4-23.8
		c7-4.2,18.5-12.3,20.8-15.5c0.7-1,2.2-3.3,1.9-9.1c-0.2-4.2-5.9-28.3-9.4-35.9C353.4,66.4,335.8,55.3,330.4,55.3L330.4,55.3z"/>
</g>
<g id="Hand-4">
	<path class="st12" d="M290.6,208.5c0.5,3.8,0.5,11.3,3.8,13.3s47.6,16.6,51.7,21.5c4.4,5.1,4.8,7.9,1.6,11.1
		c-3,3-2.8,18.3-2.5,21.4c0.4,4.3,3.6,5.3,4.7,3.5c2.5-4.2,3.8-12,3.8-12c1.5-5.9,4.4-16.7,3-26.3c-2.3-9.1-21.3-18.5-25.3-25.8
		s-3.8-13.6-3.5-19.6s-3.4-13.6-4.4-17.2"/>
	<path class="st3" d="M349.1,247.6c1.3,2.7,0.8,4.7-1.4,6.9c-3,3-2.8,18.3-2.5,21.4c0.4,4.3,3.6,5.3,4.7,3.5c2.5-4.2,3.8-12,3.8-12
		c1.5-5.9,4.4-16.7,3-26.3"/>
	<path class="st13" d="M290.6,208.5c0.5,3.8,0.5,11.3,3.8,13.3s47.6,16.6,51.7,21.5c4.4,5.1,4.8,7.9,1.6,11.1
		c-3,3-2.8,18.3-2.5,21.4c0.4,4.3,3.6,5.3,4.7,3.5c2.5-4.2,3.8-12,3.8-12c1.5-5.9,4.4-16.7,3-26.3c-2.3-9.1-21.3-18.5-25.3-25.8
		s-3.8-13.6-3.5-19.6s-3.4-13.6-4.4-17.2"/>
</g>
<g id="face-4">
	<path class="st7" d="M299,92.3c1.5-5.7,9.9-13.6,14.1-15.9c-0.6-6.3-6-10.7-10.2-12s-11.2-0.2-14.7,4.5s-4.4,9.4-0.9,15.6
		C287.3,84.7,293.6,93.3,299,92.3z"/>
	<circle class="st6" cx="299" cy="76" r="4.7"/>
	<circle class="st7" cx="299.3" cy="76.3" r="1.6"/>
	<path class="st7" d="M326.5,76.9c-1-4.8-0.8-11.7,1.9-13c4.6-2.2,13.2,1.6,17.1,7.3c3.1,4.3,3.4,10,0.8,14.6
		c-1.9,3-4.8,5.6-7.2,4.3C337.8,84.3,328.8,77.6,326.5,76.9z"/>
	<circle class="st6" cx="336.5" cy="73.9" r="4.3"/>
	<circle class="st7" cx="336.4" cy="74" r="1.6"/>
	<path class="st3" d="M305.6,105.1c-2.4-4.3,3.4-17,6.8-20.3s7.7-5.7,13.5-3.1c4.3,1.9,8.4,9.1,8.8,13.7s0.4,7.1-3.1,9.1
		C329.2,105.8,307.2,108.1,305.6,105.1z"/>
	<path class="st7" d="M314.7,88.2c0.1-3.2,10.1-6,13.5-1.8c1.2,1.5-2.6,7-5.9,7.2S314.6,90.2,314.7,88.2z"/>
	<path class="st7" d="M308.8,105.7c0.2-2.5,18.8-5.6,21.1-4.4c1.1,0.4,1.7,1.6,1.4,2.8c-0.1,0.6-1,10.6-8.4,10.4
		S308.5,109.6,308.8,105.7z"/>
	<path class="st7" d="M255.6,106.1c-1.3,0-2.5-0.4-3.5-1.2c-2.5-2-6.4-10.5-7.5-18.1l-0.1-0.8l0.7-0.4c8.9-5,28.1-12.1,28.9-12.4
		l1.9-0.7l-3.9,17.5l-0.1,0.2c-0.2,0.4-5.9,9.5-9.5,12.6C260.2,105,257.7,106.1,255.6,106.1L255.6,106.1z"/>
	<path class="st7" d="M274.5,74.3l-3.4,15.3c0,0-5.7,9.4-9.2,12.4c-2.3,2-4.4,3-6.3,3c-1,0-2-0.3-2.8-0.9c-2.3-1.8-6-10.1-7.1-17.4
		C254.7,81.6,274.5,74.4,274.5,74.3 M277.6,70.8l-3.9,1.4c-0.8,0.3-20.2,7.4-29.1,12.5l-1.3,0.8l0.2,1.5c1,7.3,4.9,16.5,7.9,18.8
		c1.2,0.9,2.7,1.4,4.2,1.4c2.4,0,5.1-1.2,7.8-3.5c3.8-3.2,9.5-12.5,9.7-12.9l0.2-0.3l0.1-0.4l3.4-15.3L277.6,70.8L277.6,70.8z"/>
</g>
<polygon class="st7" points="376.3,72.1 347.6,73.6 347.3,65.7 376,64.3 "/>
<path class="st3" d="M379.8,90.7c-1.2,0-2.5-0.2-3.7-0.3c-0.4-0.1-0.8-0.1-1.2-0.2l-28-6.9l-0.5-20l20.9-12.4
	c0.5-0.3,0.9-0.6,1.4-0.9c3.1-2.1,6.6-3.3,10.4-3.4h0.5c10.5,0,19.4,8.9,20.2,20.3c0.5,6.3-1.6,12.5-5.8,17.2
	c-3.5,4-8.6,6.4-13.9,6.6L379.8,90.7z"/>
<path class="st7" d="M379.5,47.5c10,0,18.5,8.5,19.3,19.5c0.5,6-1.5,12-5.5,16.5c-3.4,3.8-8.2,6.1-13.3,6.3h-0.2
	c-1.2,0-2.4-0.1-3.6-0.3c-0.4,0-0.8-0.1-1.1-0.2l-27.4-6.7l-0.5-18.8l20.5-12.1c0.4-0.3,0.9-0.6,1.5-0.9c2.9-2,6.3-3.1,9.9-3.2
	L379.5,47.5 M379.5,45.6H379c-3.9,0.1-7.7,1.3-10.8,3.5c-0.4,0.3-0.9,0.6-1.4,0.8l-21.4,12.7l0.5,21.2l28.7,7.1
	c0.4,0.1,0.9,0.2,1.3,0.2c1.3,0.2,2.5,0.3,3.8,0.3h0.2c12.1-0.3,21.5-11.6,20.6-24.8C399.8,54.9,390.5,45.6,379.5,45.6L379.5,45.6z"
	/>
<path class="st3" d="M334.3,96.2c-4.2,0-8.3-1.3-11.9-3.6h-0.1l-19.4-9c-1.2-0.6-2.5-1-3.8-1.3c-2.9-0.9-4.8-3.6-4.7-6.6
	c0-2.4,1.2-4.7,3.2-6c0.8-0.5,1.5-1,2.2-1.5l20.9-16.6l0.3-0.2c3.8-3,8.4-4.6,13.2-4.6h0.6c12,0.3,22,11.3,22.2,24.4
	c0.1,6.9-2.5,13.5-7.2,18.5C345.7,93.8,340.1,96.2,334.3,96.2z"/>
<path class="st7" d="M334.3,47.6h0.6c11.6,0.3,21.1,10.9,21.3,23.5c0.1,6.6-2.4,13-7,17.8c-3.9,4-9.3,6.3-14.9,6.4
	c-4,0-8-1.2-11.4-3.5l-0.1-0.1l-0.1-0.1l-19.3-8.9c-1.3-0.6-2.6-1-4-1.4c-2.5-0.8-4.1-3.2-4-5.8c0-2.1,1-4.1,2.8-5.2
	c0.8-0.5,1.6-1,2.3-1.6l20.8-16.5l0.4-0.3C325.2,49.2,329.7,47.6,334.3,47.6 M334.3,45.8c-5,0-9.8,1.7-13.8,4.8l0,0l-21.2,16.8
	c-0.7,0.5-1.4,1-2.1,1.5c-2.3,1.5-3.7,4-3.7,6.8c-0.1,3.4,2.1,6.5,5.4,7.5c1.3,0.3,2.5,0.8,3.7,1.3l19.3,8.9c3.7,2.5,8,3.8,12.4,3.8
	c13.2,0,23.9-11.7,23.7-26.1c-0.2-13.7-10.4-24.9-23.1-25.3L334.3,45.8z"/>
<ellipse class="st6" cx="334.3" cy="71.5" rx="19.3" ry="20.9"/>
<ellipse class="st6" cx="379.5" cy="68.6" rx="17" ry="18.4"/>
<path class="st5" d="M377.5,53.2c8.8,0,15.9,7.7,15.9,17.3c0,0.2,0,0.3,0,0.5c0.2-0.9,0.3-1.9,0.3-2.9c0-8.5-6.3-15.4-14.2-15.4
	c-1.4,0-2.8,0.2-4.1,0.7C376.1,53.3,376.8,53.2,377.5,53.2z"/>
<path class="st5" d="M377.2,56.4c7,0,12.7,6.2,12.7,13.8c0,0.1,0,0.3,0,0.4c0.1-0.7,0.2-1.5,0.2-2.3c0-6.8-5.1-12.3-11.3-12.3
	c-1.1,0-2.2,0.2-3.3,0.5C376,56.4,376.6,56.4,377.2,56.4z"/>
<path class="st5" d="M333.8,54.3c8.8,0,15.9,7.7,15.9,17.3c0,0.2,0,0.3,0,0.5c0.2-0.9,0.3-1.9,0.3-2.9c0-8.5-6.3-15.4-14.2-15.4
	c-1.4,0-2.8,0.2-4.1,0.7C332.4,54.4,333.1,54.3,333.8,54.3z"/>
<path class="st5" d="M333.5,57.4c7,0,12.7,6.2,12.7,13.8c0,0.1,0,0.3,0,0.4c0.1-0.7,0.2-1.5,0.2-2.3c0-6.8-5.1-12.3-11.3-12.3
	c-1.1,0-2.2,0.2-3.3,0.5C332.3,57.5,332.9,57.4,333.5,57.4z"/>
<path class="st14" d="M359.3,65.1c-0.3,2.3-0.3,4.7,0,7c0.1,0.7,0.2,1.3,0.4,1.9"/>
<path class="st14" d="M360.8,59.9c-0.2,0.4-0.3,0.8-0.5,1.2"/>
<path class="st14" d="M311.8,67.7c-0.3,2.4-0.3,4.9,0,7.3c0.1,0.7,0.2,1.3,0.4,2"/>
<path class="st14" d="M313.3,62.3c-0.2,0.4-0.3,0.9-0.5,1.3"/>
</svg>
